<svg width="93" height="92" viewBox="0 0 93 92" fill="none" xmlns="http://www.w3.org/2000/svg">
<g filter="url(#filter0_d_3503_25435)">
<path d="M83.7886 26.001H46.1456V24.6646C46.1456 23.3234 45.039 22.2363 43.6738 22.2363H8.97209C7.60683 22.2363 6.50024 23.3234 6.50024 24.6646V83.5725C6.50024 84.9137 7.60683 86.0007 8.97209 86.0007H83.7886C85.1539 86.0007 86.2604 84.9137 86.2604 83.5725V28.4292C86.2604 27.0881 85.1539 26.001 83.7886 26.001Z" fill="#CFA51F"/>
<path d="M78.7477 59.0566C78.7477 59.7731 78.167 60.3539 77.4505 60.3539H15.735C15.0185 60.3539 14.4377 59.7731 14.4377 59.0566V7.29723C14.4377 6.58079 15.0185 6 15.735 6H71.4637C71.773 6 72.0722 6.11056 72.3072 6.31175C74.3032 8.02046 76.2982 9.73007 78.2941 11.4388C78.582 11.6853 78.7477 12.0453 78.7477 12.4243V59.0566Z" fill="url(#paint0_linear_3503_25435)"/>
<path d="M72.0122 6C72.0558 7.94584 72.1007 9.89169 72.1443 11.8375H78.7469L72.0122 6Z" fill="#E1F1FD"/>
<path d="M72.9458 14.5605H19.2406C18.7391 14.5605 18.3325 14.9671 18.3325 15.4686C18.3325 15.9701 18.7391 16.3767 19.2406 16.3767H72.9458C73.4473 16.3767 73.8539 15.9701 73.8539 15.4686C73.8539 14.9671 73.4473 14.5605 72.9458 14.5605Z" fill="#E1F1FD"/>
<path d="M72.9458 19.2002H19.2406C18.7391 19.2002 18.3325 19.6067 18.3325 20.1083C18.3325 20.6098 18.7391 21.0163 19.2406 21.0163H72.9458C73.4473 21.0163 73.8539 20.6098 73.8539 20.1083C73.8539 19.6067 73.4473 19.2002 72.9458 19.2002Z" fill="#E1F1FD"/>
<path d="M72.9458 23.8398H19.2406C18.7391 23.8398 18.3325 24.2464 18.3325 24.7479C18.3325 25.2494 18.7391 25.656 19.2406 25.656H72.9458C73.4473 25.656 73.8539 25.2494 73.8539 24.7479C73.8539 24.2464 73.4473 23.8398 72.9458 23.8398Z" fill="#E1F1FD"/>
<path d="M53.6171 28.4795H19.2406C18.7391 28.4795 18.3325 28.886 18.3325 29.3876C18.3325 29.8891 18.7391 30.2956 19.2406 30.2956H53.6171C54.1186 30.2956 54.5252 29.8891 54.5252 29.3876C54.5252 28.886 54.1186 28.4795 53.6171 28.4795Z" fill="#E1F1FD"/>
<path d="M78.7477 59.0566C78.7477 59.7731 78.167 60.3539 77.4505 60.3539H15.735C15.0185 60.3539 14.4377 59.7731 14.4377 59.0566V7.29723C14.4377 6.58079 15.0185 6 15.735 6H71.4637C71.773 6 72.0722 6.11056 72.3072 6.31175C74.3032 8.02046 76.2982 9.73007 78.2941 11.4388C78.582 11.6853 78.7477 12.0453 78.7477 12.4243V59.0566Z" fill="url(#paint1_linear_3503_25435)"/>
<path d="M72.0122 6C72.0558 7.94584 72.1007 9.89169 72.1443 11.8375H78.7469L72.0122 6Z" fill="#E1F1FD"/>
<path d="M72.9458 14.5605H19.2406C18.7391 14.5605 18.3325 14.9671 18.3325 15.4686C18.3325 15.9701 18.7391 16.3767 19.2406 16.3767H72.9458C73.4473 16.3767 73.8539 15.9701 73.8539 15.4686C73.8539 14.9671 73.4473 14.5605 72.9458 14.5605Z" fill="#E1F1FD"/>
<path d="M72.9458 19.2002H19.2406C18.7391 19.2002 18.3325 19.6067 18.3325 20.1083C18.3325 20.6098 18.7391 21.0163 19.2406 21.0163H72.9458C73.4473 21.0163 73.8539 20.6098 73.8539 20.1083C73.8539 19.6067 73.4473 19.2002 72.9458 19.2002Z" fill="#E1F1FD"/>
<path d="M72.9458 23.8398H19.2406C18.7391 23.8398 18.3325 24.2464 18.3325 24.7479C18.3325 25.2494 18.7391 25.656 19.2406 25.656H72.9458C73.4473 25.656 73.8539 25.2494 73.8539 24.7479C73.8539 24.2464 73.4473 23.8398 72.9458 23.8398Z" fill="#E1F1FD"/>
<path d="M53.6171 28.4795H19.2406C18.7391 28.4795 18.3325 28.886 18.3325 29.3876C18.3325 29.8891 18.7391 30.2956 19.2406 30.2956H53.6171C54.1186 30.2956 54.5252 29.8891 54.5252 29.3876C54.5252 28.886 54.1186 28.4795 53.6171 28.4795Z" fill="#E1F1FD"/>
<path d="M86.4997 36.5314C86.4997 35.5244 85.6686 34.7056 84.641 34.7056H49.7957C49.5202 34.682 48.9909 34.6773 48.416 34.9408C47.4124 35.402 47.0532 36.3291 46.9789 36.5314L45.4484 40.1173H8.97185C7.60658 40.1173 6.5 41.2043 6.5 42.5455V83.5712C6.5 84.9124 7.60658 85.9994 8.97185 85.9994H84.0279C85.3931 85.9994 86.4997 84.9124 86.4997 83.5712V36.5314Z" fill="#F7BB13"/>
</g>
<defs>
<filter id="filter0_d_3503_25435" x="0.500021" y="2.09808e-05" width="91.9997" height="92.0009" filterUnits="userSpaceOnUse" color-interpolation-filters="sRGB">
<feFlood flood-opacity="0" result="BackgroundImageFix"/>
<feColorMatrix in="SourceAlpha" type="matrix" values="0 0 0 0 0 0 0 0 0 0 0 0 0 0 0 0 0 0 127 0" result="hardAlpha"/>
<feOffset/>
<feGaussianBlur stdDeviation="2.99999"/>
<feComposite in2="hardAlpha" operator="out"/>
<feColorMatrix type="matrix" values="0 0 0 0 0 0 0 0 0 0 0 0 0 0 0 0 0 0 0.25 0"/>
<feBlend mode="normal" in2="BackgroundImageFix" result="effect1_dropShadow_3503_25435"/>
<feBlend mode="normal" in="SourceGraphic" in2="effect1_dropShadow_3503_25435" result="shape"/>
</filter>
<linearGradient id="paint0_linear_3503_25435" x1="46.5927" y1="6" x2="46.5927" y2="60.3539" gradientUnits="userSpaceOnUse">
<stop offset="0.235" stop-color="white"/>
<stop offset="1" stop-color="#E3E3E3"/>
</linearGradient>
<linearGradient id="paint1_linear_3503_25435" x1="46.5927" y1="6" x2="46.5927" y2="60.3539" gradientUnits="userSpaceOnUse">
<stop offset="0.235" stop-color="white"/>
<stop offset="1" stop-color="#E3E3E3"/>
</linearGradient>
</defs>
</svg>
