<svg width="320" height="56" viewBox="0 0 320 56" fill="none" xmlns="http://www.w3.org/2000/svg">
<rect x="0.5" y="0.5" width="319" height="55" rx="7.5" fill="white"/>
<rect x="0.5" y="0.5" width="319" height="55" rx="7.5" stroke="#DBDBDB"/>
<g clip-path="url(#clip0_3770_14745)">
<path d="M77.861 16.7889C75.4631 17.6208 73.3951 19.1998 71.9608 21.2938C70.5265 23.3879 69.8015 25.8867 69.8924 28.4233C69.9832 30.9598 70.8851 33.4004 72.4655 35.3864C74.0459 37.3725 76.2216 38.7995 78.6729 39.4577C80.6603 39.9705 82.7424 39.993 84.7404 39.5233C86.5504 39.1168 88.2238 38.2471 89.5967 36.9996C91.0256 35.6615 92.0627 33.9592 92.5967 32.0758C93.177 30.0277 93.2803 27.8738 92.8985 25.7796H81.7385V30.4089H88.2017C88.0725 31.1473 87.7957 31.852 87.3878 32.4809C86.98 33.1098 86.4494 33.6499 85.8279 34.0689C85.0387 34.591 84.149 34.9423 83.216 35.1002C82.2803 35.2742 81.3205 35.2742 80.3848 35.1002C79.4364 34.9041 78.5392 34.5127 77.7504 33.9508C76.4832 33.0538 75.5317 31.7794 75.0317 30.3096C74.5232 28.8122 74.5232 27.1888 75.0317 25.6914C75.3876 24.6418 75.976 23.6862 76.7529 22.8958C77.642 21.9747 78.7677 21.3163 80.0063 20.9928C81.245 20.6694 82.5488 20.6933 83.7748 21.0621C84.7325 21.3561 85.6083 21.8697 86.3323 22.5621C87.061 21.8371 87.7885 21.1102 88.5148 20.3814C88.8898 19.9896 89.2985 19.6164 89.6679 19.2152C88.5627 18.1867 87.2654 17.3864 85.8504 16.8602C83.2736 15.9246 80.4541 15.8994 77.861 16.7889Z" fill="white"/>
<path d="M77.8607 16.7899C80.4536 15.8997 83.2731 15.9242 85.8501 16.8592C87.2654 17.389 88.562 18.1932 89.6657 19.2255C89.2907 19.6267 88.8951 20.0017 88.5126 20.3917C87.7851 21.118 87.0582 21.8417 86.332 22.563C85.6079 21.8706 84.7321 21.357 83.7745 21.063C82.5489 20.6929 81.2451 20.6676 80.0061 20.9897C78.7671 21.3119 77.6408 21.9691 76.7507 22.8892C75.9738 23.6796 75.3854 24.6353 75.0295 25.6849L71.1426 22.6755C72.5338 19.9165 74.9427 17.8062 77.8607 16.7899Z" fill="#C62D32"/>
<path d="M70.1114 25.6561C70.3203 24.6207 70.6672 23.618 71.1427 22.6748L75.0295 25.6917C74.5211 27.1891 74.5211 28.8124 75.0295 30.3098C73.7345 31.3098 72.4389 32.3148 71.1427 33.3248C69.9523 30.9554 69.5893 28.2557 70.1114 25.6561Z" fill="#F7BB13"/>
<path d="M81.7372 25.7783H92.8972C93.2789 27.8726 93.1756 30.0264 92.5953 32.0746C92.0614 33.958 91.0242 35.6602 89.5953 36.9983C88.3409 36.0196 87.0809 35.0483 85.8265 34.0696C86.4484 33.6501 86.9792 33.1094 87.3871 32.4798C87.795 31.8503 88.0716 31.1448 88.2003 30.4058H81.7372C81.7353 28.8646 81.7372 27.3214 81.7372 25.7783Z" fill="#168FD0"/>
<path d="M71.1406 33.3246C72.4369 32.3246 73.7325 31.3196 75.0275 30.3096C75.5285 31.7799 76.4814 33.0544 77.75 33.9508C78.5413 34.5101 79.4404 34.8983 80.39 35.0908C81.3257 35.2648 82.2855 35.2648 83.2213 35.0908C84.1542 34.9329 85.0439 34.5816 85.8331 34.0596C87.0875 35.0383 88.3475 36.0096 89.6019 36.9883C88.2292 38.2366 86.5558 39.1068 84.7456 39.5139C82.7476 39.9836 80.6655 39.9611 78.6781 39.4483C77.1063 39.0286 75.6381 38.2888 74.3656 37.2752C73.0187 36.2059 71.9187 34.8583 71.1406 33.3246Z" fill="#69B012"/>
</g>
<path d="M117.358 26.2324C116.989 25.0635 116.094 24.3389 114.788 24.3457C113.12 24.3389 111.842 25.6514 111.835 28.0508C111.842 30.4434 113.106 31.7627 114.856 31.7559C116.435 31.7627 117.481 30.7578 117.509 29.1719H115.075V27.9277H118.971V29.0488C118.971 31.5576 117.249 33.1367 114.843 33.1367C112.163 33.1367 110.345 31.1885 110.345 28.0508C110.345 24.8926 112.218 22.9648 114.774 22.9648C116.914 22.9648 118.568 24.2979 118.903 26.2324H117.358ZM123.169 33.1504C121.064 33.1504 119.69 31.6191 119.697 29.3223C119.69 27.0117 121.064 25.4805 123.169 25.4805C125.261 25.4805 126.628 27.0117 126.628 29.3223C126.628 31.6191 125.261 33.1504 123.169 33.1504ZM121.16 29.3223C121.16 30.7373 121.809 31.9336 123.169 31.9336C124.509 31.9336 125.152 30.7373 125.152 29.3223C125.152 27.9004 124.509 26.6904 123.169 26.6836C121.809 26.6904 121.16 27.9004 121.16 29.3223ZM130.648 33.1504C128.543 33.1504 127.169 31.6191 127.176 29.3223C127.169 27.0117 128.543 25.4805 130.648 25.4805C132.74 25.4805 134.107 27.0117 134.107 29.3223C134.107 31.6191 132.74 33.1504 130.648 33.1504ZM128.639 29.3223C128.639 30.7373 129.288 31.9336 130.648 31.9336C131.988 31.9336 132.631 30.7373 132.631 29.3223C132.631 27.9004 131.988 26.6904 130.648 26.6836C129.288 26.6904 128.639 27.9004 128.639 29.3223ZM138.1 35.9395C136.227 35.9395 134.99 35.1123 134.86 33.7246H136.35C136.494 34.4287 137.15 34.7705 138.114 34.7637C139.276 34.7705 140.007 34.2646 140.014 33.1094V31.6465H139.918C139.659 32.125 139.125 32.8906 137.758 32.8906C136.008 32.8906 134.655 31.585 134.655 29.2129C134.655 26.8408 135.988 25.4805 137.772 25.4805C139.153 25.4805 139.659 26.3145 139.932 26.7793H140.028V25.5762H141.45V33.1641C141.457 35.0713 140.014 35.9395 138.1 35.9395ZM136.145 29.2402C136.138 30.6963 136.808 31.6807 138.086 31.6875C139.331 31.6807 140.028 30.7715 140.028 29.2402C140.028 27.7363 139.344 26.7178 138.086 26.7246C136.794 26.7178 136.138 27.8184 136.145 29.2402ZM144.13 23.1016V33H142.667V23.1016H144.13ZM148.546 33.1504C146.359 33.1504 145.012 31.6396 145.019 29.3359C145.012 27.0527 146.379 25.4805 148.451 25.4805C150.139 25.4805 151.746 26.5264 151.746 29.2129V29.7324H146.468C146.509 31.1475 147.343 31.9473 148.56 31.9473C149.387 31.9473 149.927 31.5918 150.173 31.1406H151.65C151.322 32.3438 150.18 33.1504 148.546 33.1504ZM146.475 28.6387H150.31C150.31 27.5107 149.579 26.6768 148.464 26.6836C147.296 26.6768 146.537 27.5928 146.475 28.6387ZM165.583 21.9121V34.1621H164.352V21.9121H165.583ZM154.987 30.6211C157.592 29.0762 158.836 27.0186 159.061 24.4961H155.589V23.4297H160.346C160.346 24.0586 160.299 24.667 160.203 25.2617H161.85V22.2266H163.081V33.5605H161.85V29.3906H159.759V28.3242H161.85V26.3281H159.964C159.369 28.3857 158.063 30.1768 155.753 31.5508L154.987 30.6211ZM176.808 21.9121V29.1992H175.509V26.0957H173.226V25.0293H175.509V21.9121H176.808ZM166.595 28.0918C168.495 27.4287 169.664 25.7744 169.657 24.0859V23.8125H167.005V22.7598H173.609V23.8125H170.984V24.0723C170.977 25.624 172.084 27.1348 173.937 27.7637L173.267 28.7891C171.893 28.3174 170.881 27.333 170.348 26.123C169.815 27.4902 168.741 28.5908 167.279 29.1309L166.595 28.0918ZM168.564 31.8516C168.557 30.3955 170.129 29.5479 172.706 29.541C175.27 29.5479 176.842 30.3955 176.849 31.8516C176.842 33.3076 175.27 34.1553 172.706 34.1621C170.129 34.1553 168.557 33.3076 168.564 31.8516ZM169.849 31.8516C169.842 32.6787 170.908 33.1504 172.706 33.1367C174.491 33.1504 175.557 32.6787 175.564 31.8516C175.557 31.0176 174.491 30.5459 172.706 30.5527C170.908 30.5459 169.842 31.0176 169.849 31.8516ZM183.713 22.6504C186.283 22.6504 188.238 24.0107 188.238 26.0684C188.238 28.1396 186.283 29.4932 183.713 29.4863C181.149 29.4932 179.194 28.1396 179.201 26.0684C179.194 24.0107 181.149 22.6504 183.713 22.6504ZM178.135 32.5762V31.4961H189.346V32.5762H178.135ZM180.445 26.0684C180.438 27.4971 181.833 28.4199 183.713 28.4199C185.586 28.4199 186.973 27.4971 186.98 26.0684C186.973 24.6465 185.586 23.6963 183.713 23.7031C181.833 23.6963 180.438 24.6465 180.445 26.0684ZM200.885 31.6055V32.6992H189.674V31.6055H194.61V29.459H191.041V25.5625H198.233V23.8398H191.014V22.7734H199.518V26.6016H192.327V28.3926H199.805V29.459H195.895V31.6055H200.885ZM214.599 21.9121V34.1621H213.369V21.9121H214.599ZM204.003 30.6211C206.608 29.0762 207.852 27.0186 208.078 24.4961H204.605V23.4297H209.363C209.363 24.0586 209.315 24.667 209.219 25.2617H210.867V22.2266H212.097V33.5605H210.867V29.3906H208.775V28.3242H210.867V26.3281H208.98C208.385 28.3857 207.08 30.1768 204.769 31.5508L204.003 30.6211ZM226.809 27.9961V29.0625H215.611V27.9961H220.547V26.2051H221.832V27.9961H226.809ZM216.254 25.8496C218.599 25.5488 220.526 24.168 220.533 22.623V22.1035H221.846V22.623C221.839 24.1885 223.76 25.5488 226.125 25.8496L225.619 26.875C223.678 26.5605 221.962 25.6172 221.183 24.2637C220.403 25.6172 218.688 26.5605 216.732 26.875L216.254 25.8496ZM216.856 31.168V30.1426H225.414V34.1621H224.102V31.168H216.856ZM236.694 21.9121V26.875H238.663V27.9551H236.694V34.1621H235.409V21.9121H236.694ZM227.083 24.8926V23.8262H230.104V22.0762H231.403V23.8262H234.342V24.8926H227.083ZM227.712 28.6387C227.712 26.9707 228.997 25.7949 230.76 25.7949C232.517 25.7949 233.802 26.9707 233.809 28.6387C233.802 30.3203 232.517 31.4893 230.76 31.4961C228.997 31.4893 227.712 30.3203 227.712 28.6387ZM228.956 28.6387C228.949 29.7051 229.714 30.416 230.76 30.4023C231.799 30.416 232.558 29.7051 232.565 28.6387C232.558 27.5928 231.799 26.8682 230.76 26.8613C229.714 26.8682 228.949 27.5928 228.956 28.6387ZM248.876 21.9121V34.1621H247.564V21.9121H248.876ZM238.814 30.8809C242.068 29.3291 243.66 27.1211 243.913 24.2637H239.402V23.2246H245.226C245.226 26.8135 243.701 29.917 239.497 31.9336L238.814 30.8809Z" fill="black"/>
<defs>
<clipPath id="clip0_3770_14745">
<rect width="24" height="24" fill="white" transform="translate(69.5 16)"/>
</clipPath>
</defs>
</svg>
