<svg width="938" height="76" viewBox="0 0 938 76" fill="none" xmlns="http://www.w3.org/2000/svg">
  <path d="M23.37 56.3343L4.55604 4.02873L0.0860483 3.0947V1.62695H18.6332V3.0947L12.562 4.02873L26.906 43.5248L36.6466 18.0392L31.6429 4.02873L25.505 3.0947V1.62695H45.3197V3.0947L39.5821 3.8953L54.0596 43.4581L68.4036 6.09694L60.8646 3.0947V1.62695H75.2086V3.0947L70.1382 6.03022L51.0573 56.3343H50.5236L37.5139 20.3742L23.9038 56.3343H23.37ZM71.6763 53.6657L76.3464 52.9985V3.62843L71.6763 2.96127V1.62695H83.0181V27.6463C84.6637 25.2445 86.5985 23.3542 88.8224 21.9754C91.0463 20.5521 93.4481 19.8405 96.0278 19.8405C99.2301 19.8405 101.743 20.6411 103.567 22.2423C105.435 23.8435 106.369 26.223 106.369 29.3809V52.9985L111.039 53.6657V55H95.6942V53.6657L99.6972 52.9985V29.5144C99.6972 27.2015 99.2301 25.4224 98.2961 24.1771C97.3621 22.8872 95.9166 22.2423 93.9596 22.2423C91.9136 22.2423 89.9343 22.9984 88.0218 24.5106C86.1537 25.9784 84.4858 27.802 83.0181 29.9814V52.9985L87.0211 53.6657V55H71.6763V53.6657ZM116.77 74.4812C114.457 74.4812 112.589 73.903 111.166 72.7465C109.743 71.5901 109.031 70.0334 109.031 68.0764C109.031 66.7421 109.409 65.6524 110.165 64.8073C110.966 64.0067 111.944 63.6064 113.101 63.6064C113.946 63.6064 114.702 63.7843 115.369 64.1401C116.036 64.496 116.57 65.0297 116.97 65.7413C116.303 66.6754 115.97 67.6539 115.97 68.6768C115.97 69.5664 116.259 70.3003 116.837 70.8785C117.415 71.4567 118.149 71.7458 119.039 71.7458C120.106 71.7458 121.018 71.39 121.774 70.6783C122.575 69.9667 123.286 68.7213 123.909 66.9422L127.912 55.467L112.434 22.5092L107.964 21.842V20.5077H124.576V21.842L119.906 22.6426L131.048 46.4603L138.987 23.5099L133.249 21.842V20.5077H145.258V21.842L140.721 23.5099L125.777 66.9422C124.843 69.5664 123.709 71.4789 122.374 72.6798C121.085 73.8807 119.217 74.4812 116.77 74.4812ZM535.008 43.9918C535.008 40.656 535.43 37.765 536.275 35.3187C537.165 32.8279 538.432 30.0481 540.078 26.9791C541.546 24.1771 542.613 21.8642 543.28 20.0406C543.948 18.2171 544.281 16.1711 544.281 13.9027C544.281 9.36604 543.636 6.20813 542.346 4.42903C541.057 2.64993 539.255 1.76038 536.942 1.76038C534.763 1.76038 532.85 2.33859 531.205 3.495C529.559 4.65142 528.736 6.14141 528.736 7.96499C528.736 10.2778 529.848 11.968 532.072 13.0354C532.072 14.5921 531.605 15.793 530.671 16.6381C529.781 17.4387 528.692 17.839 527.402 17.839C526.068 17.839 524.889 17.3498 523.866 16.3712C522.887 15.3483 522.398 13.9695 522.398 12.2348C522.398 9.92201 523.11 7.8538 524.533 6.03022C526.001 4.20664 527.913 2.8056 530.271 1.82709C532.672 0.804109 535.252 0.292617 538.01 0.292617C542.813 0.292617 546.416 1.29336 548.818 3.29485C551.22 5.29634 552.421 8.67664 552.421 13.4357C552.421 15.3483 552.065 17.1274 551.353 18.773C550.686 20.3742 549.841 21.8198 548.818 23.1096C547.839 24.3994 546.483 25.9562 544.748 27.7797C542.88 29.8257 541.412 31.5603 540.345 32.9836C539.277 34.3624 538.366 35.9858 537.61 37.8539C536.853 39.722 536.475 41.7679 536.475 43.9918H535.008ZM535.741 55.6672C534.63 55.6672 533.695 55.2891 532.939 54.533C532.183 53.7324 531.805 52.7761 531.805 51.6642C531.805 50.5522 532.183 49.6405 532.939 48.9288C533.695 48.1727 534.63 47.7946 535.741 47.7946C536.853 47.7946 537.787 48.1727 538.544 48.9288C539.3 49.6405 539.678 50.5522 539.678 51.6642C539.678 52.7761 539.3 53.7324 538.544 54.533C537.787 55.2891 536.853 55.6672 535.741 55.6672ZM567.14 53.599L573.278 52.5982V4.02873L567.14 3.0947V1.62695H592.692C597.585 1.62695 601.921 2.73888 605.702 4.96276C609.527 7.14216 612.507 10.2556 614.642 14.303C616.777 18.306 617.844 22.9762 617.844 28.3135C617.844 33.6508 616.777 38.3432 614.642 42.3906C612.507 46.3936 609.527 49.507 605.702 51.7309C601.877 53.9103 597.54 55 592.692 55H567.14V53.599ZM592.692 53.3988C595.939 53.3988 598.808 52.6427 601.299 51.1305C603.834 49.6182 605.813 47.3721 607.236 44.3921C608.66 41.3676 609.371 37.7205 609.371 33.4506V23.1763C609.371 18.9065 608.66 15.2816 607.236 12.3016C605.813 9.32156 603.834 7.07544 601.299 5.56321C598.808 4.05097 595.939 3.29485 592.692 3.29485H580.617V53.3988H592.692ZM630.888 55.6672C628.042 55.6672 625.707 54.9333 623.883 53.4655C622.059 51.9533 621.148 49.7294 621.148 46.7939C621.148 42.613 622.905 39.6552 626.418 37.9206C629.932 36.1415 634.002 35.252 638.627 35.252H643.097V30.1148C643.097 27.802 642.83 26.0229 642.297 24.7775C641.808 23.4877 641.029 22.5981 639.962 22.1089C638.894 21.5751 637.449 21.3083 635.625 21.3083C633.535 21.3083 631.978 21.7308 630.955 22.5759C629.932 23.3765 629.421 24.4662 629.421 25.845C629.421 27.1348 630.043 27.9799 631.289 28.3802C631.289 29.4921 630.866 30.4706 630.021 31.3157C629.176 32.1608 628.175 32.5833 627.019 32.5833C625.773 32.5833 624.773 32.2497 624.016 31.5826C623.26 30.8709 622.882 29.8035 622.882 28.3802C622.882 25.8005 624.172 23.7323 626.752 22.1756C629.332 20.6189 632.556 19.8405 636.426 19.8405C645.321 19.8405 649.769 23.71 649.769 31.4491V50.53C649.769 51.5085 649.969 52.2646 650.369 52.7984C650.814 53.2876 651.437 53.5322 652.237 53.5322C652.994 53.5322 653.594 53.2876 654.039 52.7984C654.484 52.2646 654.706 51.553 654.706 50.6634H656.107C656.107 52.2202 655.596 53.4433 654.573 54.3328C653.594 55.2224 652.215 55.6672 650.436 55.6672C648.39 55.6672 646.656 55.089 645.232 53.9325C643.853 52.7316 643.142 50.8858 643.097 48.3951C642.03 50.6634 640.384 52.4425 638.16 53.7324C635.981 55.0222 633.557 55.6672 630.888 55.6672ZM634.558 52.7316C635.759 52.7316 636.982 52.3758 638.227 51.6642C639.517 50.9525 640.607 49.9296 641.496 48.5952C642.386 47.2164 642.919 45.5708 643.097 43.6582V36.7197H638.627C634.98 36.7197 632.245 37.5426 630.421 39.1882C628.642 40.7894 627.753 43.0578 627.753 45.9933C627.753 48.4396 628.331 50.1742 629.487 51.1972C630.644 52.2202 632.334 52.7316 634.558 52.7316ZM661.537 12.7019C660.291 12.7019 659.224 12.2793 658.334 11.4342C657.445 10.5447 657 9.47723 657 8.23186C657 6.98649 657.422 5.94127 658.268 5.09619C659.157 4.25112 660.247 3.82858 661.537 3.82858C662.738 3.82858 663.761 4.25112 664.606 5.09619C665.451 5.94127 665.873 6.98649 665.873 8.23186C665.873 9.47723 665.451 10.5447 664.606 11.4342C663.761 12.2793 662.738 12.7019 661.537 12.7019ZM654.465 55V53.6657L659.135 52.9985V22.5092L654.465 21.842V20.5077H665.807V52.9985L670.477 53.6657V55H654.465ZM669.88 55V53.6657L674.884 52.9985V3.62843L669.88 2.96127V1.62695H681.556V52.9985L686.226 53.6657V55H669.88ZM692.172 74.4812C689.86 74.4812 687.992 73.903 686.568 72.7465C685.145 71.5901 684.433 70.0334 684.433 68.0764C684.433 66.7421 684.811 65.6524 685.568 64.8073C686.368 64.0067 687.347 63.6064 688.503 63.6064C689.348 63.6064 690.104 63.7843 690.771 64.1401C691.439 64.496 691.972 65.0297 692.373 65.7413C691.705 66.6754 691.372 67.6539 691.372 68.6768C691.372 69.5664 691.661 70.3003 692.239 70.8785C692.817 71.4567 693.551 71.7458 694.441 71.7458C695.508 71.7458 696.42 71.39 697.176 70.6783C697.977 69.9667 698.688 68.7213 699.311 66.9422L703.314 55.467L687.836 22.5092L683.366 21.842V20.5077H699.978V21.842L695.308 22.6426L706.45 46.4603L714.389 23.5099L708.651 21.842V20.5077H720.66V21.842L716.124 23.5099L701.179 66.9422C700.245 69.5664 699.111 71.4789 697.777 72.6798C696.487 73.8807 694.619 74.4812 692.172 74.4812ZM731.963 55V53.599L738.101 52.5982V4.02873L731.963 3.0947V1.62695H751.578V3.0947L745.44 4.02873V52.5982L751.578 53.599V55H731.963ZM752.713 53.6657L757.383 52.9985V22.4424L752.713 21.7753V20.4409H764.055V27.6463C765.701 25.2445 767.636 23.3542 769.859 21.9754C772.083 20.5521 774.485 19.8405 777.065 19.8405C780.267 19.8405 782.78 20.6411 784.604 22.2423C786.472 23.8435 787.406 26.223 787.406 29.3809V52.9985L792.076 53.6657V55H776.731V53.6657L780.734 52.9985V29.5144C780.734 27.2015 780.267 25.4224 779.333 24.1771C778.399 22.8872 776.954 22.2423 774.997 22.2423C772.951 22.2423 770.971 22.9984 769.059 24.5106C767.191 25.9784 765.523 27.802 764.055 29.9814V52.9985L768.058 53.6657V55H752.713V53.6657ZM805.937 55.6672C802.29 55.6672 799.243 54.8888 796.797 53.3321C794.351 51.7754 793.128 49.7516 793.128 47.2609C793.128 45.9711 793.461 44.9703 794.129 44.2587C794.84 43.5026 795.774 43.1245 796.931 43.1245C797.82 43.1245 798.576 43.3469 799.199 43.7917C799.822 44.2364 800.266 44.8591 800.533 45.6597C799.555 46.7272 799.066 47.8614 799.066 49.0622C799.066 50.4411 799.688 51.6419 800.934 52.6649C802.179 53.6879 803.847 54.1994 805.937 54.1994C808.739 54.1994 811.03 53.5767 812.809 52.3313C814.588 51.0415 815.478 49.3291 815.478 47.1942C815.478 45.9488 815.1 45.0148 814.344 44.3921C813.587 43.7694 812.12 43.0578 809.94 42.2572L799.866 38.5878C795.908 37.1645 793.928 34.5181 793.928 30.6485C793.928 27.4906 795.018 24.9109 797.197 22.9094C799.377 20.8635 802.379 19.8405 806.204 19.8405C809.362 19.8405 812.053 20.5744 814.277 22.0421C816.545 23.4654 817.679 25.5114 817.679 28.18C817.679 29.2475 817.39 30.1148 816.812 30.782C816.234 31.4047 815.478 31.716 814.544 31.716C813.61 31.716 812.831 31.4714 812.209 30.9821C811.63 30.4484 811.341 29.7368 811.341 28.8472C811.92 28.4024 812.32 27.9354 812.542 27.4462C812.765 26.9124 812.876 26.2897 812.876 25.5781C812.876 24.3327 812.32 23.3097 811.208 22.5092C810.14 21.7086 808.473 21.3083 806.204 21.3083C804.247 21.3083 802.557 21.6196 801.134 22.2423C799.755 22.8205 798.71 23.5989 797.998 24.5774C797.286 25.5559 796.931 26.5566 796.931 27.5796C796.931 28.6471 797.309 29.4921 798.065 30.1148C798.865 30.7375 800.311 31.4269 802.401 32.183L811.742 35.5188C813.921 36.3194 815.567 37.4314 816.679 38.8547C817.791 40.2779 818.347 42.1238 818.347 44.3921C818.347 47.639 817.324 50.3299 815.278 52.4648C813.232 54.5997 810.118 55.6672 805.937 55.6672ZM827.259 12.7019C826.014 12.7019 824.946 12.2793 824.057 11.4342C823.167 10.5447 822.722 9.47723 822.722 8.23186C822.722 6.98649 823.145 5.94127 823.99 5.09619C824.879 4.25112 825.969 3.82858 827.259 3.82858C828.46 3.82858 829.483 4.25112 830.328 5.09619C831.173 5.94127 831.596 6.98649 831.596 8.23186C831.596 9.47723 831.173 10.5447 830.328 11.4342C829.483 12.2793 828.46 12.7019 827.259 12.7019ZM820.187 55V53.6657L824.857 52.9985V22.5092L820.187 21.842V20.5077H831.529V52.9985L836.199 53.6657V55H820.187ZM870.295 17.3053C870.295 19.0399 869.65 20.5299 868.36 21.7753C867.071 23.0206 865.025 23.8212 862.222 24.1771C863.379 25.8672 863.957 28.18 863.957 31.1156C863.957 34.5848 862.712 37.3202 860.221 39.3217C857.775 41.3232 854.661 42.3239 850.881 42.3239C849.324 42.3239 847.901 42.1905 846.611 41.9236C843.764 42.1015 842.341 43.2135 842.341 45.2594C842.341 46.4158 842.808 47.2609 843.742 47.7946C844.721 48.3284 846.255 48.5952 848.345 48.5952H855.818C859.42 48.5952 862.089 49.3291 863.824 50.7969C865.603 52.2646 866.492 54.7776 866.492 58.3358C866.492 60.8266 865.847 63.1172 864.558 65.2076C863.312 67.298 861.489 68.9437 859.087 70.1446C856.685 71.39 853.816 72.0127 850.48 72.0127C845.454 72.0127 841.741 71.2565 839.339 69.7443C836.981 68.2321 835.803 66.2306 835.803 63.7398C835.803 62.2276 836.381 60.8933 837.537 59.7369C838.694 58.5804 840.273 58.0022 842.274 58.0022C842.675 58.0022 843.497 58.0912 844.743 58.2691C843.364 59.7369 842.675 61.4715 842.675 63.473C842.675 65.3855 843.342 67.0534 844.676 68.4767C846.01 69.9 848.19 70.6116 851.214 70.6116C853.838 70.6116 856.174 70.1001 858.219 69.0771C860.31 68.0986 861.911 66.8088 863.023 65.2076C864.135 63.6064 864.691 61.9607 864.691 60.2706C864.691 58.4025 864.091 57.046 862.89 56.2009C861.689 55.4003 859.554 55 856.485 55H848.345C845.232 55 842.875 54.3996 841.274 53.1987C839.717 51.9533 838.938 50.1297 838.938 47.7279C838.938 46.1267 839.383 44.7257 840.273 43.5248C841.207 42.2794 842.385 41.4788 843.809 41.123C839.939 39.4773 838.004 36.1415 838.004 31.1156C838.004 27.6018 839.228 24.8442 841.674 22.8427C844.12 20.8412 847.189 19.8405 850.881 19.8405C855.551 19.8405 858.931 20.819 861.022 22.776C862.267 22.5536 863.201 22.1533 863.824 21.5751C864.446 20.9524 864.758 20.263 864.758 19.5069C864.758 18.7953 864.558 18.2615 864.157 17.9057C863.757 17.5054 863.29 17.3053 862.756 17.3053C862.756 16.3268 863.112 15.4817 863.824 14.7701C864.58 14.0139 865.469 13.6359 866.492 13.6359C867.604 13.6359 868.516 13.9695 869.228 14.6366C869.939 15.3038 870.295 16.1933 870.295 17.3053ZM857.686 29.4476C857.686 26.7345 857.108 24.6441 855.951 23.1763C854.839 21.7086 853.149 20.9747 850.881 20.9747C846.477 20.9747 844.276 23.799 844.276 29.4476V32.7167C844.276 35.3409 844.809 37.4091 845.877 38.9214C846.989 40.4336 848.657 41.1897 850.881 41.1897C853.149 41.1897 854.839 40.4336 855.951 38.9214C857.108 37.4091 857.686 35.3409 857.686 32.7167V29.4476ZM868.037 53.6657L872.707 52.9985V3.62843L868.037 2.96127V1.62695H879.379V27.6463C881.025 25.2445 882.959 23.3542 885.183 21.9754C887.407 20.5521 889.809 19.8405 892.389 19.8405C895.591 19.8405 898.104 20.6411 899.928 22.2423C901.796 23.8435 902.73 26.223 902.73 29.3809V52.9985L907.4 53.6657V55H892.055V53.6657L896.058 52.9985V29.5144C896.058 27.2015 895.591 25.4224 894.657 24.1771C893.723 22.8872 892.277 22.2423 890.32 22.2423C888.274 22.2423 886.295 22.9984 884.383 24.5106C882.515 25.9784 880.847 27.802 879.379 29.9814V52.9985L883.382 53.6657V55H868.037V53.6657ZM920.87 55.6672C917.935 55.6672 915.577 54.9333 913.798 53.4655C912.064 51.9978 911.196 49.6627 911.196 46.4603V22.4424L906.46 21.7753V20.4409H911.196V14.9035L917.868 13.2356V20.4409H926.541V21.7753L917.868 22.4424V46.3269C917.868 51.0415 919.558 53.3988 922.938 53.3988C923.65 53.3988 924.317 53.2876 924.94 53.0652C925.607 52.8428 926.119 52.6205 926.474 52.3981C926.875 52.1757 927.119 52.02 927.208 51.931L928.076 52.9985C926.074 54.7776 923.672 55.6672 920.87 55.6672ZM932.991 43.9918C932.947 39.5441 932.747 35.252 932.391 31.1156C932.079 26.9791 931.657 22.5092 931.123 17.7056C930.856 15.1704 930.612 12.7463 930.389 10.4335C930.211 8.12067 930.122 6.25261 930.122 4.82933C930.122 3.80634 930.456 2.91679 931.123 2.16067C931.79 1.36008 932.68 0.95978 933.792 0.95978C934.904 0.95978 935.793 1.36008 936.46 2.16067C937.128 2.91679 937.461 3.80634 937.461 4.82933C937.461 6.25261 937.35 8.1429 937.128 10.5002C936.95 12.8575 936.727 15.326 936.46 17.9057C935.927 23.2875 935.504 27.9132 935.193 31.7827C934.882 35.6078 934.681 39.6775 934.592 43.9918H932.991ZM933.792 55.6672C932.68 55.6672 931.746 55.2891 930.99 54.533C930.234 53.7324 929.856 52.7761 929.856 51.6642C929.856 50.5522 930.234 49.6405 930.99 48.9288C931.746 48.1727 932.68 47.7946 933.792 47.7946C934.904 47.7946 935.838 48.1727 936.594 48.9288C937.35 49.6405 937.728 50.5522 937.728 51.6642C937.728 52.7761 937.35 53.7324 936.594 54.533C935.838 55.2891 934.904 55.6672 933.792 55.6672Z" fill="white"/>
  <path d="M512.243 1.323H394.133V64.3151H512.243V1.323Z" fill="white"/>
  <path d="M308.268 35.2871L320.757 68.5641L333.287 35.2871H340.497V74.8908H335.505V41.9425H335.403L323.037 74.8908H318.538L306.172 41.9425H306.07V74.8908H301.078V35.2871H308.288H308.268Z" fill="white"/>
  <path d="M370.869 74.7867C370.048 75.2591 368.918 75.5056 367.48 75.5056C366.268 75.5056 365.282 75.1564 364.563 74.4786C363.844 73.8007 363.474 72.6709 363.474 71.1303C362.18 72.6915 360.681 73.8007 358.955 74.4786C357.23 75.1564 355.381 75.5056 353.389 75.5056C352.094 75.5056 350.862 75.3618 349.691 75.0537C348.52 74.7661 347.514 74.2937 346.672 73.6569C345.829 73.0201 345.151 72.1985 344.638 71.1919C344.124 70.1854 343.898 68.9529 343.898 67.515C343.898 65.8923 344.165 64.5571 344.72 63.53C345.275 62.503 346.014 61.6608 346.918 61.0034C347.822 60.3667 348.869 59.8737 350.02 59.5245C351.17 59.1753 352.382 58.9082 353.594 58.7028C354.888 58.4358 356.121 58.2509 357.291 58.1277C358.462 58.0044 359.489 57.8195 360.373 57.573C361.256 57.3265 361.954 56.9773 362.488 56.5254C363.002 56.0735 363.269 55.3957 363.269 54.4918C363.269 53.4648 363.084 52.6226 362.694 52.0063C362.303 51.3901 361.81 50.8971 361.194 50.5684C360.578 50.2398 359.9 50.0138 359.14 49.9111C358.38 49.8084 357.641 49.7468 356.901 49.7468C354.909 49.7468 353.245 50.1165 351.91 50.8766C350.574 51.6366 349.855 53.0745 349.753 55.1697H345.049C345.131 53.4032 345.501 51.9036 346.158 50.6712C346.815 49.4592 347.719 48.4527 348.828 47.7132C349.938 46.9532 351.211 46.4191 352.629 46.0699C354.046 45.7207 355.586 45.5769 357.209 45.5769C358.503 45.5769 359.797 45.6796 361.071 45.8645C362.345 46.0494 363.495 46.4191 364.542 46.9943C365.59 47.5694 366.412 48.3705 367.049 49.3976C367.685 50.4247 367.993 51.7804 367.993 53.4442V68.1724C367.993 69.2816 368.055 70.0827 368.178 70.6168C368.302 71.1303 368.733 71.3974 369.472 71.3974C369.883 71.3974 370.356 71.3152 370.91 71.1714V74.8278L370.869 74.7867ZM363.228 60.0791C362.632 60.531 361.852 60.8391 360.907 61.0445C359.941 61.2499 358.935 61.4143 357.887 61.5375C356.839 61.6608 355.771 61.8046 354.703 61.9894C353.635 62.1538 352.67 62.4208 351.827 62.7905C350.985 63.1603 350.287 63.6738 349.753 64.3722C349.219 65.0501 348.952 65.9744 348.952 67.1658C348.952 67.9464 349.116 68.5832 349.424 69.1173C349.732 69.6513 350.143 70.0827 350.636 70.4114C351.129 70.74 351.725 70.9865 352.382 71.1303C353.039 71.2741 353.758 71.3563 354.498 71.3563C356.059 71.3563 357.374 71.1509 358.483 70.7195C359.592 70.2881 360.496 69.7541 361.194 69.1173C361.893 68.4805 362.406 67.7821 362.755 67.0221C363.105 66.262 363.248 65.5636 363.248 64.9063V60.0996L363.228 60.0791Z" fill="white"/>
  <path d="M373.875 41.0592V35.2871H378.599V41.0592H373.875ZM378.599 46.2151V74.8908H373.875V46.2151H378.599Z" fill="white"/>
  <path d="M388.342 35.2871V74.8908H383.617V35.2871H388.342Z" fill="white"/>
  <path d="M425.324 16.3266C423.311 14.9298 420.908 14.2109 418.135 14.2109C415.773 14.2109 413.739 14.6628 412.055 15.5461C410.37 16.4294 408.994 17.6207 407.885 19.1203C406.776 20.6198 405.995 22.3247 405.482 24.2556C404.968 26.1865 404.701 28.179 404.701 30.2537C404.701 32.5132 404.968 34.6495 405.482 36.6626C405.995 38.6756 406.796 40.4422 407.885 41.9211C408.974 43.4207 410.37 44.6121 412.075 45.4953C413.78 46.3786 415.814 46.8305 418.176 46.8305C419.922 46.8305 421.463 46.5429 422.798 45.9678C424.154 45.3926 425.304 44.5915 426.29 43.585C427.276 42.5579 428.036 41.3665 428.591 39.9492C429.145 38.5318 429.474 37.0323 429.597 35.4095H434.856C434.342 40.4011 432.617 44.2834 429.7 47.0565C426.783 49.8296 422.777 51.2058 417.724 51.2058C414.664 51.2058 411.973 50.6717 409.672 49.6241C407.371 48.5765 405.482 47.1181 403.962 45.2694C402.441 43.4207 401.312 41.2433 400.552 38.7167C399.792 36.2107 399.422 33.4992 399.422 30.6234C399.422 27.7476 399.833 25.0362 400.634 22.489C401.455 19.9625 402.647 17.744 404.208 15.8542C405.769 13.9644 407.741 12.4854 410.083 11.3967C412.425 10.308 415.115 9.75342 418.156 9.75342C420.23 9.75342 422.182 10.0205 424.03 10.5751C425.879 11.1297 427.522 11.9513 428.96 13.0195C430.398 14.0876 431.61 15.4228 432.576 17.0456C433.541 18.6478 434.157 20.5171 434.465 22.6123H429.207C428.611 19.7981 427.317 17.7029 425.304 16.2856L425.324 16.3266Z" fill="black"/>
  <path d="M443.99 10.7197V50.3234H439.266V10.7197H443.99Z" fill="black"/>
  <path d="M468.929 50.4506V45.9109H468.826C467.82 47.6775 466.546 48.9921 465.006 49.8138C463.465 50.6354 461.616 51.0668 459.521 51.0668C457.631 51.0668 456.07 50.8203 454.796 50.3273C453.543 49.8343 452.516 49.1154 451.756 48.191C450.976 47.2667 450.442 46.1574 450.113 44.8839C449.805 43.6103 449.641 42.1929 449.641 40.6523V21.7954H454.345V41.207C454.345 42.9735 454.858 44.3909 455.906 45.4179C456.953 46.445 458.371 46.9791 460.178 46.9791C461.616 46.9791 462.869 46.7531 463.917 46.3218C464.964 45.8698 465.848 45.2536 466.546 44.432C467.245 43.6103 467.779 42.6654 468.128 41.5767C468.477 40.488 468.662 39.2966 468.662 38.0025V21.816H473.386V50.4916H468.949L468.929 50.4506Z" fill="black"/>
  <path d="M483.704 10.7197V25.53H483.807C484.587 23.9483 485.799 22.7775 487.463 22.0585C489.127 21.3396 490.955 20.9699 492.948 20.9699C495.166 20.9699 497.097 21.3807 498.74 22.1818C500.384 23.0034 501.76 24.0921 502.848 25.4889C503.937 26.8652 504.759 28.4674 505.313 30.2956C505.868 32.1033 506.156 34.0341 506.156 36.0677C506.156 38.1013 505.889 40.0322 505.355 41.8398C504.82 43.6475 503.999 45.2292 502.91 46.5849C501.821 47.9406 500.445 48.9882 498.802 49.7688C497.159 50.5494 495.248 50.9397 493.071 50.9397C492.372 50.9397 491.592 50.8575 490.709 50.7137C489.846 50.5699 488.983 50.3234 488.12 49.9948C487.278 49.6661 486.457 49.2142 485.717 48.639C484.957 48.0639 484.32 47.3655 483.807 46.5027H483.704V50.3234H479V10.7197H483.704ZM500.651 31.8362C500.301 30.5627 499.767 29.4329 499.048 28.4264C498.329 27.4198 497.405 26.6393 496.275 26.0436C495.145 25.4479 493.831 25.1603 492.311 25.1603C490.729 25.1603 489.373 25.4684 488.264 26.1052C487.155 26.742 486.251 27.5636 485.553 28.5701C484.854 29.5972 484.341 30.7475 484.033 32.0416C483.725 33.3357 483.56 34.6504 483.56 35.9856C483.56 37.3824 483.725 38.7586 484.053 40.0527C484.382 41.3469 484.916 42.5177 485.635 43.5242C486.354 44.5308 487.299 45.3319 488.428 45.9276C489.579 46.5438 490.955 46.8519 492.578 46.8519C494.201 46.8519 495.556 46.5438 496.645 45.907C497.734 45.2702 498.617 44.4486 499.274 43.4215C499.932 42.3945 500.425 41.2031 500.712 39.8679C501 38.5327 501.164 37.177 501.164 35.7596C501.164 34.4244 500.979 33.1303 500.63 31.8568L500.651 31.8362Z" fill="black"/>
  <path d="M176.6 1.323H153.766V64.3151H176.6V1.323Z" fill="#69B012"/>
  <path d="M199.428 1.323H176.594V64.3151H199.428V1.323Z" fill="#F7BB13"/>
  <path d="M223.052 1.323H199.43V64.3151H223.052V1.323Z" fill="#E68302"/>
  <path d="M245.882 1.323H223.047V64.3151H245.882V1.323Z" fill="#C62D32"/>
  <path d="M268.717 1.323H245.883V64.3151H268.717V1.323Z" fill="#862872"/>
  <path d="M291.561 1.323H268.727V64.3151H291.561V1.323Z" fill="#168FD0"/>
  <path d="M168.798 9.77466V49.3783H163.539V9.77466H168.798Z" fill="black"/>
  <path d="M179.668 20.6998V25.2395H179.771C181.723 21.768 184.845 20.022 189.097 20.022C190.987 20.022 192.548 20.289 193.801 20.8025C195.054 21.3161 196.081 22.035 196.841 22.9594C197.622 23.8837 198.156 24.993 198.484 26.2665C198.792 27.5401 198.957 28.9575 198.957 30.5186V49.3755H194.232V29.964C194.232 28.1974 193.719 26.7801 192.671 25.753C191.623 24.7259 190.206 24.1919 188.398 24.1919C186.961 24.1919 185.708 24.4178 184.66 24.8492C183.612 25.3011 182.729 25.9173 182.031 26.739C181.332 27.5606 180.798 28.5055 180.449 29.5942C180.1 30.6829 179.915 31.8743 179.915 33.1684V49.355H175.211V20.6793H179.648L179.668 20.6998Z" fill="black"/>
  <path d="M208.011 42.9673C208.463 43.6863 209.038 44.2614 209.757 44.6928C210.476 45.1242 211.297 45.4323 212.201 45.6172C213.105 45.802 214.05 45.8842 214.995 45.8842C215.734 45.8842 216.515 45.8226 217.316 45.7199C218.138 45.6172 218.877 45.4118 219.555 45.1036C220.233 44.8161 220.808 44.3642 221.239 43.8095C221.691 43.2344 221.897 42.5154 221.897 41.6116C221.897 40.3997 221.424 39.4753 220.521 38.8385C219.596 38.2018 218.446 37.7088 217.049 37.3185C215.652 36.9282 214.153 36.579 212.53 36.2709C210.907 35.9627 209.387 35.5108 208.011 34.9357C206.614 34.3605 205.464 33.5594 204.539 32.5323C203.615 31.5053 203.143 30.0468 203.143 28.1981C203.143 26.7602 203.471 25.5277 204.108 24.4801C204.745 23.4531 205.587 22.6109 206.594 21.9536C207.621 21.3168 208.75 20.8238 210.024 20.5157C211.297 20.2075 212.571 20.0432 213.824 20.0432C215.447 20.0432 216.946 20.187 218.323 20.454C219.699 20.7416 220.911 21.2141 221.958 21.8919C223.006 22.5698 223.848 23.4942 224.485 24.665C225.122 25.8359 225.492 27.2738 225.594 29.0198H220.89C220.808 28.0954 220.582 27.3354 220.171 26.7191C219.761 26.1029 219.247 25.6099 218.61 25.2402C217.973 24.8704 217.296 24.6034 216.536 24.4391C215.775 24.2747 215.015 24.1926 214.235 24.1926C213.536 24.1926 212.818 24.2542 212.099 24.3569C211.38 24.4596 210.722 24.665 210.127 24.9321C209.531 25.2196 209.058 25.5894 208.689 26.0413C208.319 26.5137 208.134 27.1094 208.134 27.8489C208.134 28.6706 208.422 29.3484 208.997 29.8825C209.572 30.4166 210.291 30.8685 211.195 31.2177C212.078 31.5669 213.085 31.8545 214.194 32.101C215.303 32.3475 216.412 32.594 217.522 32.8405C218.713 33.1075 219.863 33.4156 220.993 33.7854C222.123 34.1551 223.109 34.6481 223.992 35.2643C224.855 35.8806 225.574 36.6406 226.108 37.565C226.642 38.4893 226.909 39.6396 226.909 40.9954C226.909 42.7414 226.539 44.1793 225.82 45.3296C225.101 46.4799 224.156 47.4043 222.986 48.1027C221.815 48.8011 220.5 49.2941 219.042 49.5817C217.583 49.8487 216.125 49.9925 214.687 49.9925C213.105 49.9925 211.585 49.8281 210.147 49.4995C208.709 49.1708 207.436 48.6162 206.326 47.8562C205.217 47.0962 204.334 46.1102 203.656 44.8571C202.999 43.6247 202.629 42.1046 202.547 40.3381H207.251C207.292 41.3651 207.538 42.2484 207.97 42.9673H208.011Z" fill="black"/>
  <path d="M235.352 20.6998V24.5821H235.455C236.236 23.0005 237.448 21.8296 239.111 21.1107C240.775 20.3917 242.603 20.022 244.596 20.022C246.814 20.022 248.745 20.4328 250.389 21.2339C252.032 22.0556 253.408 23.1443 254.497 24.5411C255.586 25.9173 256.407 27.5196 256.962 29.3477C257.517 31.1554 257.804 33.0863 257.804 35.1199C257.804 37.1534 257.537 39.0843 257.003 40.892C256.469 42.6996 255.647 44.2813 254.559 45.637C253.47 46.9927 252.094 48.0404 250.45 48.8209C248.807 49.6015 246.897 49.9918 244.719 49.9918C244.021 49.9918 243.24 49.9096 242.357 49.7658C241.494 49.622 240.632 49.3755 239.769 49.0469C238.927 48.7182 238.105 48.2663 237.365 47.6912C236.605 47.116 235.969 46.4176 235.455 45.5549H235.352V60.3035H230.648V20.6998H235.352ZM252.299 30.8883C251.95 29.6148 251.416 28.485 250.697 27.4785C249.978 26.472 249.053 25.6914 247.924 25.0957C246.794 24.5 245.479 24.2124 243.959 24.2124C242.378 24.2124 241.022 24.5205 239.913 25.1573C238.803 25.7941 237.9 26.6157 237.201 27.6223C236.503 28.6493 235.989 29.7997 235.681 31.0938C235.373 32.3879 235.209 33.7025 235.209 35.0377C235.209 36.4345 235.373 37.8108 235.702 39.1049C236.03 40.399 236.564 41.5698 237.283 42.5764C238.002 43.5829 238.947 44.384 240.077 44.9797C241.227 45.5959 242.603 45.9041 244.226 45.9041C245.849 45.9041 247.205 45.5959 248.293 44.9592C249.382 44.3224 250.265 43.5007 250.923 42.4737C251.58 41.4466 252.073 40.2552 252.361 38.92C252.648 37.5848 252.813 36.2291 252.813 34.8117C252.813 33.4765 252.628 32.1824 252.278 30.9089L252.299 30.8883Z" fill="black"/>
  <path d="M261.024 29.1636C261.62 27.3354 262.503 25.7332 263.694 24.398C264.886 23.0422 266.344 21.9946 268.07 21.2141C269.816 20.4335 271.808 20.0432 274.068 20.0432C276.327 20.0432 278.361 20.4335 280.086 21.2141C281.812 21.9946 283.25 23.0628 284.441 24.398C285.632 25.7537 286.516 27.3354 287.111 29.1636C287.707 30.9917 287.995 32.9637 287.995 35.0795C287.995 37.1952 287.707 39.1467 287.111 40.9543C286.516 42.7619 285.632 44.3436 284.441 45.6993C283.25 47.0551 281.812 48.1027 280.086 48.8627C278.361 49.6227 276.368 49.9925 274.068 49.9925C271.767 49.9925 269.816 49.6227 268.07 48.8627C266.324 48.1027 264.865 47.0551 263.694 45.6993C262.503 44.3436 261.62 42.7619 261.024 40.9543C260.428 39.1467 260.141 37.1747 260.141 35.0795C260.141 32.9843 260.428 31.0123 261.024 29.1636ZM265.81 39.7013C266.282 41.057 266.919 42.1868 267.72 43.0906C268.521 43.9944 269.487 44.6928 270.576 45.1653C271.664 45.6377 272.815 45.8842 274.047 45.8842C275.28 45.8842 276.43 45.6377 277.519 45.1653C278.607 44.6928 279.552 43.9944 280.374 43.0906C281.195 42.1868 281.832 41.057 282.284 39.7013C282.736 38.3455 282.983 36.8049 282.983 35.0795C282.983 33.354 282.757 31.7929 282.284 30.4577C281.812 29.1019 281.175 27.9722 280.374 27.0478C279.552 26.1234 278.607 25.425 277.519 24.9321C276.43 24.4596 275.28 24.2131 274.047 24.2131C272.815 24.2131 271.664 24.4596 270.576 24.9321C269.487 25.4045 268.542 26.1234 267.72 27.0478C266.899 27.9722 266.262 29.1019 265.81 30.4577C265.338 31.8134 265.112 33.354 265.112 35.0795C265.112 36.8049 265.338 38.3661 265.81 39.7013Z" fill="black"/>
  </svg>
  