<svg width="100" height="100" viewBox="0 0 100 100" fill="none" xmlns="http://www.w3.org/2000/svg">
<g clip-path="url(#clip0_3817_5533)">
<rect width="100" height="100" rx="8" fill="white"/>
<rect x="-10.5" y="38.5" width="61" height="23" rx="11.5" fill="#F4F4F4"/>
<rect x="-10.5" y="38.5" width="61" height="23" rx="11.5" stroke="#DBDBDB"/>
<path d="M9.02344 51.8223V48.6973H9.85352V54H9.02344V53.1016H8.96484C8.71582 53.6387 8.18848 54.0684 7.39258 54.0684C6.38672 54.0684 5.66895 53.4141 5.67383 52.0664V48.6973H6.51367V52.0078C6.51367 52.7695 6.9873 53.2627 7.66602 53.2578C8.2666 53.2627 9.01855 52.8135 9.02344 51.8223ZM11.641 50.8164V54H10.8012V48.6973H11.6117V49.5273H11.6801C11.9291 48.9854 12.4271 48.6289 13.2328 48.6289C14.307 48.6289 15.0248 49.2832 15.0199 50.6309V54H14.1801V50.6895C14.1801 49.8691 13.7309 49.3809 12.9789 49.3809C12.2074 49.3809 11.641 49.8984 11.641 50.8164ZM15.9676 54V48.6973H16.7781V49.5078H16.8367C17.0271 48.9707 17.5789 48.6143 18.2039 48.6094C18.3309 48.6143 18.5457 48.6191 18.6434 48.6289V49.4785C18.5799 49.4639 18.3553 49.4199 18.1355 49.4199C17.3738 49.4199 16.8074 49.9473 16.8074 50.6602V54H15.9676ZM21.1145 54.1074C19.5813 54.1123 18.634 53.0186 18.634 51.3926C18.634 49.7617 19.5959 48.6289 21.0363 48.6289C22.1496 48.6289 23.3264 49.3125 23.3215 51.2754V51.627H19.4738C19.5178 52.75 20.1721 53.3652 21.1145 53.3652C21.7492 53.3652 22.1496 53.0869 22.3449 52.7598H23.2434C22.9943 53.5654 22.2082 54.1123 21.1145 54.1074ZM19.4787 50.9141H22.4719C22.467 50.0303 21.9104 49.3711 21.0363 49.3711C20.1184 49.3711 19.5373 50.0938 19.4787 50.9141ZM23.7613 52.4961C23.7613 51.2803 24.8355 51.002 25.7535 50.9336C26.0953 50.9092 26.9498 50.8604 27.1891 50.8555V50.4258C27.1891 49.752 26.7887 49.3613 25.9879 49.3613C25.3189 49.3613 24.9137 49.6689 24.7965 50.0742H23.9176C24.025 49.2197 24.8551 48.6289 26.027 48.6289C26.7203 48.6289 28.024 48.834 28.0191 50.5039V54H27.1891V53.2773H27.15C26.9742 53.6338 26.4908 54.1221 25.568 54.127C24.5621 54.1221 23.7613 53.5312 23.7613 52.4961ZM24.6012 52.5352C24.6061 53.0967 25.0699 53.3799 25.7145 53.375C26.6617 53.3799 27.1891 52.7451 27.1891 52.0762V51.5439C26.94 51.5586 26.1051 51.6221 25.8512 51.6367C25.0895 51.6855 24.6061 51.9541 24.6012 52.5352ZM30.9688 54.1074C29.6455 54.1123 28.7129 53.0479 28.7129 51.3633C28.7129 49.6836 29.6455 48.6289 30.9785 48.6289C32.0088 48.6289 32.3311 49.2539 32.5117 49.5371H32.5703V46.9297H33.4199V54H32.5996V53.1895H32.5117C32.3262 53.4824 31.9795 54.1123 30.9688 54.1074ZM29.5625 51.3438C29.5625 52.4717 30.0801 53.3555 31.0859 53.3555C32.0576 53.3555 32.5947 52.5352 32.5996 51.3438C32.5947 50.167 32.0723 49.3809 31.0859 49.3809C30.0654 49.3809 29.5625 50.2354 29.5625 51.3438Z" fill="#797979"/>
<rect x="59" y="38" width="52" height="24" rx="12" fill="#168FD0"/>
<path d="M75.5664 54V48.6973H76.9629V49.6152H77.0215C77.2119 48.9658 77.7051 48.6191 78.3008 48.6191C78.4473 48.6191 78.6328 48.6387 78.7598 48.668V49.957C78.623 49.9131 78.3447 49.8789 78.1445 49.8789C77.4902 49.8789 77.0068 50.333 77.0117 50.9824V54H75.5664ZM81.2992 54.1074C79.6732 54.1025 78.6771 53.0527 78.682 51.373C78.6771 49.7373 79.6879 48.6289 81.2406 48.6289C82.6322 48.6289 83.7309 49.5078 83.7309 51.3145V51.7246H80.1078C80.1078 52.5254 80.5814 53.0186 81.3285 53.0234C81.8217 53.0186 82.1732 52.8037 82.3148 52.4863H83.6918C83.4867 53.4678 82.6078 54.1025 81.2992 54.1074ZM80.1078 50.8164H82.3637C82.3588 50.1719 81.9145 49.708 81.2699 49.7129C80.6059 49.708 80.1371 50.2061 80.1078 50.8164ZM83.9852 52.5156C83.99 51.334 84.9373 50.9482 85.9578 50.8848C86.3387 50.8604 87.0516 50.8262 87.2762 50.8164V50.3867C87.2713 49.9424 86.9686 49.6885 86.4266 49.6836C85.9334 49.6885 85.6258 49.9082 85.5477 50.2695H84.1707C84.2586 49.3516 85.0594 48.6289 86.4656 48.6289C87.6229 48.6289 88.7166 49.1465 88.7117 50.4258V54H87.3445V53.2676H87.3055C87.0467 53.7559 86.5389 54.1025 85.7527 54.0977C84.7371 54.1025 83.99 53.5654 83.9852 52.5156ZM85.3719 52.4766C85.3719 52.8818 85.699 53.0967 86.1629 53.1016C86.8221 53.0967 87.2811 52.667 87.2762 52.1055V51.7197C87.0564 51.7295 86.4363 51.7637 86.1922 51.7832C85.6893 51.8271 85.3719 52.0664 85.3719 52.4766ZM91.3684 54.0879C90.1574 54.0879 89.2102 53.126 89.2102 51.3535C89.2102 49.5371 90.1965 48.6289 91.3684 48.6289C92.257 48.6289 92.6818 49.1562 92.8723 49.5859H92.9211V46.9297H94.3664V54H92.9406V53.1504H92.8723C92.6721 53.5898 92.2326 54.0879 91.3684 54.0879ZM90.6945 51.3438C90.6896 52.2812 91.0852 52.9307 91.8176 52.9355C92.5402 52.9307 92.9504 52.3008 92.9504 51.3438C92.9504 50.3916 92.5451 49.7812 91.8176 49.7812C91.0803 49.7812 90.6896 50.4209 90.6945 51.3438Z" fill="white"/>
</g>
<defs>
<clipPath id="clip0_3817_5533">
<rect width="100" height="100" rx="8" fill="white"/>
</clipPath>
</defs>
</svg>
