<svg width="100" height="100" viewBox="0 0 100 100" fill="none" xmlns="http://www.w3.org/2000/svg">
<rect width="100" height="100" rx="8" fill="white"/>
<rect width="100" height="32" fill="#C62D32"/>
<path d="M31.4512 12.7969V11.1016H39.5586V12.7969H36.5234V21H34.4863V12.7969H31.4512ZM42.4849 21.1504C40.2427 21.1436 38.8414 19.6055 38.8482 17.3086C38.8414 15.0186 40.2427 13.4805 42.4849 13.4805C44.7339 13.4805 46.1285 15.0186 46.1353 17.3086C46.1285 19.6055 44.7339 21.1436 42.4849 21.1504ZM40.899 17.3086C40.899 18.6074 41.439 19.5713 42.4986 19.5781C43.5308 19.5713 44.0777 18.6074 44.0709 17.3086C44.0777 16.0029 43.5308 15.0254 42.4986 15.0254C41.439 15.0254 40.899 16.0029 40.899 17.3086ZM49.5812 21.123C47.8859 21.123 46.5597 19.7764 46.5597 17.2949C46.5597 14.752 47.9405 13.4805 49.5812 13.4805C50.8253 13.4805 51.42 14.2188 51.6866 14.8203H51.755V11.1016H53.7784V21H51.7823V19.8105H51.6866C51.4064 20.4258 50.7911 21.123 49.5812 21.123ZM48.6378 17.2812C48.631 18.5938 49.1847 19.5029 50.2101 19.5098C51.2218 19.5029 51.796 18.6211 51.796 17.2812C51.796 15.9482 51.2286 15.0938 50.2101 15.0938C49.1779 15.0938 48.631 15.9893 48.6378 17.2812ZM54.4899 18.9219C54.4968 17.2676 55.8229 16.7275 57.2516 16.6387C57.7848 16.6045 58.7829 16.5566 59.0973 16.543V15.9414C59.0905 15.3193 58.6667 14.9639 57.9079 14.957C57.2175 14.9639 56.7868 15.2715 56.6774 15.7773H54.7497C54.8727 14.4922 55.9938 13.4805 57.9626 13.4805C59.5827 13.4805 61.1139 14.2051 61.1071 15.9961V21H59.193V19.9746H59.1384C58.7761 20.6582 58.0651 21.1436 56.9645 21.1367C55.5427 21.1436 54.4968 20.3916 54.4899 18.9219ZM56.4313 18.8672C56.4313 19.4346 56.8893 19.7354 57.5387 19.7422C58.4616 19.7354 59.1042 19.1338 59.0973 18.3477V17.8076C58.7897 17.8213 57.9216 17.8691 57.5798 17.8965C56.8757 17.958 56.4313 18.293 56.4313 18.8672ZM63.008 23.7891C62.6116 23.7822 62.2424 23.7754 61.9827 23.748V22.1758C62.2424 22.1963 62.55 22.2031 62.803 22.2031C63.2063 22.2031 63.5276 22.1621 63.7737 21.5195L63.8967 21.2051L61.2307 13.5762H63.3498L64.9084 19.0449H64.9905L66.5627 13.5762H68.7092L65.8108 21.8203C65.387 23.0166 64.5735 23.7822 63.008 23.7891Z" fill="white"/>
<path d="M35.1719 85.5469C27.5703 85.5469 22.0469 81.2812 21.8281 75.0469H25.7656C25.9844 79.2578 30.0039 82.0469 35.1172 82.0469C40.6953 82.0469 44.6602 78.8203 44.6875 74.3359C44.6602 69.6602 40.75 66.4062 34.3516 66.4062H31.8906V62.9062H34.3516C39.5469 62.9336 43.293 60.0078 43.3203 55.5234C43.293 51.2578 40.0938 48.2773 35.2266 48.3047C30.5781 48.2773 26.6406 51.0117 26.5312 55.3047H22.7578C22.8945 49.0977 28.418 44.8594 35.2812 44.8594C42.5 44.8594 47.0938 49.6445 47.0391 55.3594C47.0938 59.8711 44.3594 63.2344 40.0938 64.4375V64.7109C45.2891 65.6133 48.4883 69.332 48.4609 74.3906C48.4883 80.7617 42.8555 85.5469 35.1719 85.5469ZM66.1819 85.5469C57.7327 85.5469 52.7834 78.0547 52.7834 65.2031C52.7834 52.4336 57.7873 44.8594 66.1819 44.8594C74.5491 44.8594 79.5256 52.4336 79.5256 65.2031C79.5256 78.0547 74.6038 85.5469 66.1819 85.5469ZM56.6116 65.2031C56.5842 75.9219 60.1389 82.0469 66.1819 82.0469C72.1702 82.0469 75.7248 75.9219 75.7522 65.2031C75.7248 54.4844 72.1428 48.2773 66.1819 48.3047C60.1663 48.2773 56.5842 54.4844 56.6116 65.2031Z" fill="black"/>
</svg>
