<svg width="100" height="100" viewBox="0 0 100 100" fill="none" xmlns="http://www.w3.org/2000/svg">
<rect width="100" height="100" rx="8" fill="white"/>
<path d="M18 63V23C18 20.7909 19.7909 19 22 19H34.3149C35.3717 19 36.3856 19.4182 37.1351 20.1633L38.9117 21.9297C39.6612 22.6748 40.6751 23.093 41.7319 23.093H78C80.2091 23.093 82 24.8839 82 27.093V63C82 65.2091 80.2091 67 78 67H22C19.7909 67 18 65.2091 18 63Z" fill="#19A6F6"/>
<rect x="21.0469" y="26.1494" width="57.9048" height="38.8085" rx="4" fill="white"/>
<rect x="18" y="29.2129" width="64" height="37.7872" rx="4" fill="url(#paint0_linear_3817_5526)"/>
<path d="M23.0137 79.8164V83H22.1738V77.6973H22.9844V78.5273H23.0527C23.3018 77.9854 23.7998 77.6289 24.6055 77.6289C25.6797 77.6289 26.3975 78.2832 26.3926 79.6309V83H25.5527V79.6895C25.5527 78.8691 25.1035 78.3809 24.3516 78.3809C23.5801 78.3809 23.0137 78.8984 23.0137 79.8164ZM29.5668 83.1074C28.0336 83.1123 27.0863 82.0186 27.0863 80.3926C27.0863 78.7617 28.0482 77.6289 29.4887 77.6289C30.602 77.6289 31.7787 78.3125 31.7738 80.2754V80.627H27.9262C27.9701 81.75 28.6244 82.3652 29.5668 82.3652C30.2016 82.3652 30.602 82.0869 30.7973 81.7598H31.6957C31.4467 82.5654 30.6605 83.1123 29.5668 83.1074ZM27.9311 79.9141H30.9242C30.9193 79.0303 30.3627 78.3711 29.4887 78.3711C28.5707 78.3711 27.9896 79.0938 27.9311 79.9141ZM33.659 83L32.0477 77.6973H32.9363L34.0691 81.7402H34.118L35.241 77.6973H36.1395L37.243 81.7207H37.3016L38.4344 77.6973H39.3133L37.702 83H36.8719L35.7195 78.957H35.6414L34.4988 83H33.659ZM42.7902 79.0742C42.673 78.6348 42.3361 78.3467 41.716 78.3418C41.0617 78.3467 40.5979 78.6982 40.593 79.1426C40.5979 79.4941 40.8811 79.7334 41.5012 79.8848L42.2922 80.0801C43.2395 80.3047 43.7033 80.7783 43.7082 81.5156C43.7033 82.4336 42.9562 83.1123 41.6281 83.1074C40.4367 83.1123 39.7287 82.5801 39.5871 81.6133H40.466C40.5637 82.1309 40.9396 82.3799 41.6086 82.375C42.3654 82.3799 42.8391 82.0625 42.8391 81.5645C42.8391 81.1885 42.5705 80.9443 41.9699 80.8027L41.1691 80.6172C40.2463 80.4023 39.7531 79.8994 39.7531 79.1914C39.7531 78.2832 40.549 77.6289 41.716 77.6289C42.8146 77.6289 43.5031 78.2148 43.6105 79.0742H42.7902ZM45.2418 75.9297V83H44.402V75.9297H45.2418ZM48.4062 83.1074C46.873 83.1123 45.9258 82.0186 45.9258 80.3926C45.9258 78.7617 46.8877 77.6289 48.3281 77.6289C49.4414 77.6289 50.6182 78.3125 50.6133 80.2754V80.627H46.7656C46.8096 81.75 47.4639 82.3652 48.4062 82.3652C49.041 82.3652 49.4414 82.0869 49.6367 81.7598H50.5352C50.2861 82.5654 49.5 83.1123 48.4062 83.1074ZM46.7705 79.9141H49.7637C49.7588 79.0303 49.2021 78.3711 48.3281 78.3711C47.4102 78.3711 46.8291 79.0938 46.7705 79.9141ZM53.6215 77.6973V78.4004H52.5082V81.4766C52.5033 82.1553 52.8451 82.2676 53.2016 82.2676C53.3529 82.2676 53.5775 82.2529 53.6996 82.248V83.0293C53.5678 83.0488 53.3627 83.0684 53.1137 83.0684C52.4057 83.0684 51.6635 82.6289 51.6586 81.6914V78.4004H50.8578V77.6973H51.6586V76.4277H52.5082V77.6973H53.6215ZM56.6199 77.6973V78.4004H55.5066V81.4766C55.5018 82.1553 55.8436 82.2676 56.2 82.2676C56.3514 82.2676 56.576 82.2529 56.698 82.248V83.0293C56.5662 83.0488 56.3611 83.0684 56.1121 83.0684C55.4041 83.0684 54.6619 82.6289 54.657 81.6914V78.4004H53.8563V77.6973H54.657V76.4277H55.5066V77.6973H56.6199ZM59.4719 83.1074C57.9387 83.1123 56.9914 82.0186 56.9914 80.3926C56.9914 78.7617 57.9533 77.6289 59.3937 77.6289C60.507 77.6289 61.6838 78.3125 61.6789 80.2754V80.627H57.8312C57.8752 81.75 58.5295 82.3652 59.4719 82.3652C60.1066 82.3652 60.507 82.0869 60.7023 81.7598H61.6008C61.3518 82.5654 60.5656 83.1123 59.4719 83.1074ZM57.8361 79.9141H60.8293C60.8244 79.0303 60.2678 78.3711 59.3937 78.3711C58.4758 78.3711 57.8947 79.0938 57.8361 79.9141ZM62.3727 83V77.6973H63.1832V78.5078H63.2418C63.4322 77.9707 63.984 77.6143 64.609 77.6094C64.7359 77.6143 64.9508 77.6191 65.0484 77.6289V78.4785C64.985 78.4639 64.7604 78.4199 64.5406 78.4199C63.7789 78.4199 63.2125 78.9473 63.2125 79.6602V83H62.3727ZM65.459 83.0586C65.1172 83.0537 64.8242 82.7705 64.834 82.4238C64.8242 82.082 65.1172 81.7988 65.459 81.7988C65.8057 81.7988 66.0889 82.082 66.084 82.4238C66.0889 82.7705 65.8057 83.0537 65.459 83.0586ZM69.3754 77.6973V78.4004H68.2035V83H67.3539V78.4004H66.5043V77.6973H67.3539V76.9746C67.3588 76.1152 67.9301 75.5977 68.8676 75.5977C69.0727 75.5977 69.3168 75.6221 69.4926 75.6562V76.4082C69.3119 76.3789 69.1605 76.3691 69.0531 76.3691C68.4623 76.3691 68.1986 76.6133 68.2035 77.1602V77.6973H69.3754ZM69.9715 83V77.6973H70.8113V83H69.9715ZM69.8055 76.2617C69.8006 75.9492 70.0691 75.7002 70.3914 75.7051C70.7137 75.7002 70.9822 75.9492 70.9871 76.2617C70.9822 76.5693 70.7137 76.8184 70.3914 76.8184C70.0691 76.8184 69.8006 76.5693 69.8055 76.2617ZM72.5891 75.9297V83H71.7492V75.9297H72.5891ZM75.7535 83.1074C74.2203 83.1123 73.273 82.0186 73.273 80.3926C73.273 78.7617 74.235 77.6289 75.6754 77.6289C76.7887 77.6289 77.9654 78.3125 77.9605 80.2754V80.627H74.1129C74.1568 81.75 74.8111 82.3652 75.7535 82.3652C76.3883 82.3652 76.7887 82.0869 76.984 81.7598H77.8824C77.6334 82.5654 76.8473 83.1123 75.7535 83.1074ZM74.1178 79.9141H77.1109C77.1061 79.0303 76.5494 78.3711 75.6754 78.3711C74.7574 78.3711 74.1764 79.0938 74.1178 79.9141Z" fill="black"/>
<defs>
<linearGradient id="paint0_linear_3817_5526" x1="50" y1="29.2129" x2="50" y2="67.0001" gradientUnits="userSpaceOnUse">
<stop stop-color="#19A6F6"/>
<stop offset="1" stop-color="#2178EB"/>
</linearGradient>
</defs>
</svg>
