<svg width="100" height="100" viewBox="0 0 100 100" fill="none" xmlns="http://www.w3.org/2000/svg">
<rect width="100" height="100" rx="8" fill="black"/>
<rect x="8" y="32" width="84" height="60" rx="6" fill="#222223"/>
<path d="M21.334 45.0488V45.6836H15.3574V42.5586H16.1387V45.0488H21.334ZM14.3516 47.5781V46.9434H22.2617V47.5781H20.2012V50.791H19.4395V47.5781H17.1836V50.791H16.4219V47.5781H14.3516ZM26.9203 43.3887C26.9252 44.8779 28.6244 46.2012 30.1332 46.4844L29.7816 47.1289C28.4682 46.8262 27.0912 45.8936 26.5297 44.6191C25.9633 45.8936 24.5912 46.8213 23.2777 47.1289L22.9262 46.4844C24.4301 46.1963 26.1146 44.8828 26.1195 43.3887V42.7246H26.9203V43.3887ZM22.5941 49.6094V48.9746H30.5434V49.6094H22.5941ZM34.2254 43.0762V46.0742H31.8719V48.0078C32.8729 47.998 33.8201 47.9688 34.9773 47.7637L35.0359 48.3984C33.8006 48.6182 32.8045 48.6475 31.7059 48.6523H31.1297V45.4395H33.493V43.7109H31.1102V43.0762H34.2254ZM34.6453 45.8691V45.2441H35.7586V42.3242H36.4813V50.332H35.7586V45.8691H34.6453ZM37.5262 50.791V42.1094H38.2586V50.791H37.5262ZM46.2766 42.1094V50.8105H45.5148V46.0254H43.6789V45.3906H45.5148V42.1094H46.2766ZM39.4797 48.7109V42.9102H43.5324V43.5449H40.2512V45.3516H43.1516V45.9766H40.2512V48.0762C41.843 48.0713 42.8684 48.0273 44.0598 47.8125L44.1477 48.4473C42.883 48.6523 41.8234 48.7109 40.1437 48.7109H39.4797ZM52.3516 43.5059C52.3467 44.6875 53.2451 45.7715 54.5195 46.2109L54.1191 46.8164C53.1328 46.4697 52.3662 45.7373 51.9902 44.8193C51.624 45.8301 50.8428 46.6113 49.8125 46.9922L49.4121 46.377C50.7256 45.9131 51.5947 44.7705 51.5996 43.457V42.5586H52.3516V43.5059ZM50.5352 48.4277V47.8027H56.2188V50.791H55.457V48.4277H50.5352ZM55.457 47.373V42.1094H56.2188V44.4141H57.5273V45.0684H56.2188V47.373H55.457ZM65.0961 42.1094V50.791H64.3637V42.1094H65.0961ZM57.5668 48.4766C58.7777 47.7539 59.4857 46.167 59.4809 44.5898V43.7695H57.8109V43.1348H61.8148V43.7695H60.223V44.5898C60.223 46.0889 60.9018 47.5879 62.098 48.2812L61.6293 48.8477C60.7748 48.335 60.1693 47.3975 59.8666 46.2939C59.5541 47.4902 58.9242 48.5107 58.0551 49.0527L57.5668 48.4766ZM61.1508 45.8691V45.2441H62.6156V42.3242H63.3383V50.3418H62.6156V45.8691H61.1508ZM72.7918 42.1094V45.6934H74.1102V46.3379H72.7918V50.791H72.0203V42.1094H72.7918ZM65.8875 48.3887C67.1961 47.0459 67.7283 45.4297 67.826 43.7012H66.1609V43.0566H68.5535C68.5438 45.1221 68.0799 47.1631 66.5027 48.8281L65.8875 48.3887ZM68.3777 48.9746C69.7352 47.4414 70.1404 45.5127 70.2137 43.7012H68.827V43.0566H70.9363C70.9314 45.1172 70.6287 47.5146 69.0027 49.4043L68.3777 48.9746ZM77.2648 44.7754C77.2697 46.25 78.3391 47.749 79.6184 48.3008L79.1887 48.9062C78.173 48.4473 77.299 47.4463 76.8937 46.2451C76.4885 47.5195 75.6096 48.623 74.6184 49.1211L74.1594 48.5156C75.4045 47.9199 76.4885 46.2793 76.4934 44.7754V43.6426H74.4426V43.0078H79.3352V43.6426H77.2648V44.7754ZM80.5461 50.791V42.1094H81.3176V50.791H80.5461Z" fill="#797979"/>
<path d="M16.9785 64.0977C15.4111 64.0977 14.5029 62.7793 14.5078 60.4648C14.5029 58.1699 15.4209 56.832 16.9785 56.832C18.5312 56.832 19.4492 58.1699 19.4492 60.4648C19.4492 62.7793 18.5459 64.0977 16.9785 64.0977ZM15.3574 60.4648C15.3623 62.2959 15.9531 63.3164 16.9785 63.3164C17.999 63.3164 18.5947 62.2959 18.5898 60.4648C18.5947 58.6338 17.9941 57.5986 16.9785 57.5938C15.9629 57.5986 15.3623 58.6338 15.3574 60.4648ZM22.5355 64.0977C20.9682 64.0977 20.06 62.7793 20.0648 60.4648C20.06 58.1699 20.9779 56.832 22.5355 56.832C24.0883 56.832 25.0062 58.1699 25.0062 60.4648C25.0062 62.7793 24.1029 64.0977 22.5355 64.0977ZM20.9145 60.4648C20.9193 62.2959 21.5102 63.3164 22.5355 63.3164C23.5561 63.3164 24.1518 62.2959 24.1469 60.4648C24.1518 58.6338 23.5512 57.5986 22.5355 57.5938C21.5199 57.5986 20.9193 58.6338 20.9145 60.4648ZM26.3836 63.0625C26.0418 63.0576 25.7488 62.7744 25.7586 62.4277C25.7488 62.0859 26.0418 61.8027 26.3836 61.8027C26.7303 61.8027 27.0135 62.0859 27.0086 62.4277C27.0135 62.7744 26.7303 63.0576 26.3836 63.0625ZM25.7586 58.502C25.7488 58.1602 26.0418 57.877 26.3836 57.877C26.7303 57.877 27.0135 58.1602 27.0086 58.502C27.0135 58.8486 26.7303 59.1318 26.3836 59.1367C26.0418 59.1318 25.7488 58.8486 25.7586 58.502ZM30.2316 64.0977C28.6643 64.0977 27.7561 62.7793 27.7609 60.4648C27.7561 58.1699 28.674 56.832 30.2316 56.832C31.7844 56.832 32.7023 58.1699 32.7023 60.4648C32.7023 62.7793 31.799 64.0977 30.2316 64.0977ZM28.6105 60.4648C28.6154 62.2959 29.2063 63.3164 30.2316 63.3164C31.2521 63.3164 31.8479 62.2959 31.843 60.4648C31.8479 58.6338 31.2473 57.5986 30.2316 57.5938C29.216 57.5986 28.6154 58.6338 28.6105 60.4648ZM35.9742 56.9297V64H35.0855V57.8477H35.0465L33.3277 58.9902V58.1016L35.0855 56.9297H35.9742Z" fill="white"/>
<rect x="60" y="60" width="24" height="24" rx="12" fill="#FF9000"/>
<rect x="68" y="67.5" width="3" height="9" rx="1" fill="#222223"/>
<rect x="73" y="67.5" width="3" height="9" rx="1" fill="#222223"/>
<path d="M40.9785 20.0977C39.4111 20.0977 38.5029 18.7793 38.5078 16.4648C38.5029 14.1699 39.4209 12.832 40.9785 12.832C42.5312 12.832 43.4492 14.1699 43.4492 16.4648C43.4492 18.7793 42.5459 20.0977 40.9785 20.0977ZM39.3574 16.4648C39.3623 18.2959 39.9531 19.3164 40.9785 19.3164C41.999 19.3164 42.5947 18.2959 42.5898 16.4648C42.5947 14.6338 41.9941 13.5986 40.9785 13.5938C39.9629 13.5986 39.3623 14.6338 39.3574 16.4648ZM46.5844 20.0977C45.0951 20.0977 44.0697 19.2725 44.0746 18.125C44.0697 17.2119 44.7045 16.4551 45.5102 16.3281V16.2891C44.807 16.1279 44.3432 15.4785 44.348 14.707C44.3432 13.6279 45.2904 12.832 46.5844 12.832C47.8734 12.832 48.8207 13.6279 48.8305 14.707C48.8207 15.4785 48.352 16.1279 47.6586 16.2891V16.3281C48.4594 16.4551 49.0941 17.2119 49.1039 18.125C49.0941 19.2725 48.059 20.0977 46.5844 20.0977ZM44.9535 18.0762C44.9389 18.8184 45.5687 19.3213 46.5844 19.3262C47.5951 19.3213 48.225 18.8184 48.225 18.0762C48.225 17.2949 47.5365 16.7188 46.5844 16.7188C45.6371 16.7188 44.9389 17.2949 44.9535 18.0762ZM45.1977 14.7754C45.2025 15.4883 45.7738 15.9717 46.5844 15.9766C47.39 15.9717 47.9711 15.4883 47.9711 14.7754C47.9711 14.0674 47.4096 13.5889 46.5844 13.5938C45.7445 13.5889 45.2025 14.0674 45.1977 14.7754ZM50.491 19.0625C50.1492 19.0576 49.8562 18.7744 49.866 18.4277C49.8562 18.0859 50.1492 17.8027 50.491 17.8027C50.8377 17.8027 51.1209 18.0859 51.116 18.4277C51.1209 18.7744 50.8377 19.0576 50.491 19.0625ZM49.866 14.502C49.8562 14.1602 50.1492 13.877 50.491 13.877C50.8377 13.877 51.1209 14.1602 51.116 14.502C51.1209 14.8486 50.8377 15.1318 50.491 15.1367C50.1492 15.1318 49.8562 14.8486 49.866 14.502ZM54.466 20.0977C53.0598 20.0977 52.049 19.3457 52.0051 18.2227H52.8938C52.9426 18.8965 53.6115 19.3164 54.4563 19.3164C55.3889 19.3164 56.0627 18.8135 56.0676 18.0762C56.0627 17.3047 55.4475 16.7627 54.3488 16.7578H53.7727V15.9863H54.3488C55.2082 15.9863 55.8088 15.5029 55.8039 14.7754C55.8088 14.0674 55.2912 13.5986 54.4855 13.5938C53.7287 13.5986 53.0402 14.0137 53.0012 14.707H52.1516C52.1955 13.584 53.2404 12.832 54.4953 12.832C55.843 12.832 56.6633 13.7158 56.6535 14.7266C56.6633 15.5322 56.1945 16.1182 55.4523 16.3281V16.377C56.3752 16.5186 56.9318 17.1777 56.927 18.0762C56.9318 19.2383 55.8771 20.0977 54.466 20.0977ZM60.2965 12.9297V20H59.4078V13.8477H59.3687L57.65 14.9902V14.1016L59.4078 12.9297H60.2965Z" fill="white"/>
<rect x="68" y="7" width="20" height="20" rx="10" fill="black"/>
<path d="M78 13V21" stroke="#FF9000" stroke-linecap="round"/>
<path d="M82 17L74 17" stroke="#FF9000" stroke-linecap="round"/>
</svg>
