<svg width="24" height="24" viewBox="0 0 24 24" fill="none" xmlns="http://www.w3.org/2000/svg">
<g id="ctn-article/icn-list/24">
<path id="Vector" d="M19.0002 12.7499H8.00023C7.80132 12.7499 7.61055 12.6709 7.4699 12.5302C7.32925 12.3896 7.25023 12.1988 7.25023 11.9999C7.25023 11.801 7.32925 11.6102 7.4699 11.4696C7.61055 11.3289 7.80132 11.2499 8.00023 11.2499H19.0002C19.1991 11.2499 19.3899 11.3289 19.5306 11.4696C19.6712 11.6102 19.7502 11.801 19.7502 11.9999C19.7502 12.1988 19.6712 12.3896 19.5306 12.5302C19.3899 12.6709 19.1991 12.7499 19.0002 12.7499ZM19.0002 8.2499H8.00023C7.80132 8.2499 7.61055 8.17088 7.4699 8.03023C7.32925 7.88957 7.25023 7.69881 7.25023 7.4999C7.25023 7.30098 7.32925 7.11022 7.4699 6.96957C7.61055 6.82891 7.80132 6.7499 8.00023 6.7499H19.0002C19.1991 6.7499 19.3899 6.82891 19.5306 6.96957C19.6712 7.11022 19.7502 7.30098 19.7502 7.4999C19.7502 7.69881 19.6712 7.88957 19.5306 8.03023C19.3899 8.17088 19.1991 8.2499 19.0002 8.2499ZM19.0002 17.2499H8.00023C7.80132 17.2499 7.61055 17.1709 7.4699 17.0302C7.32925 16.8896 7.25023 16.6988 7.25023 16.4999C7.25023 16.301 7.32925 16.1102 7.4699 15.9696C7.61055 15.8289 7.80132 15.7499 8.00023 15.7499H19.0002C19.1991 15.7499 19.3899 15.8289 19.5306 15.9696C19.6712 16.1102 19.7502 16.301 19.7502 16.4999C19.7502 16.6988 19.6712 16.8896 19.5306 17.0302C19.3899 17.1709 19.1991 17.2499 19.0002 17.2499ZM5.00023 8.4999C4.87022 8.50149 4.74114 8.47771 4.62023 8.4299C4.50098 8.37149 4.39001 8.29751 4.29023 8.2099C4.19755 8.11646 4.12423 8.00564 4.07446 7.8838C4.0247 7.76197 3.99947 7.6315 4.00023 7.4999C4.00392 7.23513 4.1075 6.98153 4.29023 6.7899C4.38351 6.69655 4.49617 6.62486 4.62023 6.5799C4.86369 6.47988 5.13677 6.47988 5.38023 6.5799C5.50298 6.62749 5.61513 6.69886 5.71023 6.7899C5.89297 6.98153 5.99655 7.23513 6.00023 7.4999C6.00099 7.6315 5.97577 7.76197 5.926 7.8838C5.87624 8.00564 5.80291 8.11646 5.71023 8.2099C5.61046 8.29751 5.49949 8.37149 5.38023 8.4299C5.25932 8.47771 5.13025 8.50149 5.00023 8.4999ZM5.00023 12.9999C4.86956 12.9983 4.74045 12.9711 4.62023 12.9199C4.49949 12.8684 4.38801 12.7975 4.29023 12.7099C4.19755 12.6165 4.12423 12.5056 4.07446 12.3838C4.0247 12.262 3.99947 12.1315 4.00023 11.9999C4.00392 11.7351 4.1075 11.4815 4.29023 11.2899C4.38801 11.2023 4.49949 11.1314 4.62023 11.0799C4.80125 10.996 5.00325 10.9681 5.20023 10.9999L5.38023 11.0599L5.56023 11.1499C5.61213 11.1875 5.66218 11.2275 5.71023 11.2699C5.8977 11.4665 6.00165 11.7282 6.00023 11.9999C6.00023 12.2651 5.89488 12.5195 5.70734 12.707C5.5198 12.8945 5.26545 12.9999 5.00023 12.9999ZM5.00023 17.4999C4.87022 17.5015 4.74114 17.4777 4.62023 17.4299C4.50098 17.3715 4.39001 17.2975 4.29023 17.2099C4.20266 17.1121 4.13171 17.0006 4.08023 16.8799C4.02733 16.7602 4 16.6308 4 16.4999C4 16.369 4.02733 16.2396 4.08023 16.1199C4.13171 15.9992 4.20266 15.8877 4.29023 15.7899C4.43086 15.6511 4.60943 15.5571 4.80342 15.5198C4.99741 15.4824 5.19812 15.5033 5.38023 15.5799C5.50298 15.6275 5.61513 15.6989 5.71023 15.7899C5.79781 15.8877 5.86875 15.9992 5.92023 16.1199C5.97314 16.2396 6.00047 16.369 6.00047 16.4999C6.00047 16.6308 5.97314 16.7602 5.92023 16.8799C5.86875 17.0006 5.79781 17.1121 5.71023 17.2099C5.61679 17.3026 5.50598 17.3759 5.38414 17.4257C5.2623 17.4754 5.13184 17.5007 5.00023 17.4999Z" fill="black"/>
</g>
</svg>
