<svg width="154" height="25" viewBox="0 0 154 25" fill="none" xmlns="http://www.w3.org/2000/svg">
<g id="logo-horizontal-120">
<g id="inspomailclub">
<g id="inspo">
<path id="Vector" d="M28.4619 4.2002V19.7844H26.3892V4.2002H28.4619Z" fill="black"/>
<path id="Vector_2" d="M32.5202 8.49894V10.2885H32.5633C33.3343 8.921 34.5573 8.23633 36.2305 8.23633C36.9733 8.23633 37.5904 8.33762 38.0856 8.54208C38.5808 8.74655 38.9804 9.02979 39.2861 9.3937C39.5919 9.75761 39.8057 10.1909 39.9295 10.6918C40.0533 11.1945 40.1152 11.7497 40.1152 12.3612V19.7819H38.2601V12.1418C38.2601 11.444 38.0556 10.8906 37.6486 10.4835C37.2415 10.0765 36.6807 9.87203 35.9679 9.87203C35.3995 9.87203 34.9099 9.96019 34.4954 10.1346C34.0808 10.3091 33.7357 10.5567 33.4581 10.8775C33.1823 11.1982 32.9741 11.5734 32.8353 12.0011C32.6965 12.4306 32.6271 12.8996 32.6271 13.4098V19.7838H30.772V8.49894H32.5183H32.5202Z" fill="black"/>
<path id="Vector_3" d="M43.4535 17.2627C43.6279 17.546 43.8568 17.7729 44.1419 17.9399C44.4251 18.1068 44.7459 18.2269 45.1023 18.3C45.4587 18.3732 45.8263 18.4088 46.2052 18.4088C46.496 18.4088 46.8017 18.3863 47.1225 18.3432C47.4433 18.3 47.7378 18.2194 48.006 18.1031C48.2742 17.9868 48.4974 17.8161 48.6719 17.591C48.8463 17.3659 48.9345 17.0789 48.9345 16.7281C48.9345 16.2479 48.7526 15.884 48.3887 15.6364C48.0248 15.3888 47.5708 15.1881 47.025 15.0361C46.4791 14.8842 45.8864 14.7454 45.2467 14.6216C44.6071 14.4978 44.0143 14.3233 43.4685 14.0982C42.9226 13.8731 42.4687 13.5561 42.1048 13.1491C41.7409 12.742 41.5589 12.1736 41.5589 11.4458C41.5589 10.8775 41.6865 10.3916 41.9416 9.9827C42.1967 9.57565 42.5231 9.24364 42.9245 8.9904C43.3241 8.73529 43.7761 8.54771 44.2769 8.42203C44.7797 8.29823 45.2767 8.23633 45.7719 8.23633C46.4116 8.23633 47.0006 8.29073 47.5408 8.39952C48.0791 8.50832 48.5556 8.69778 48.9701 8.96789C49.3847 9.23801 49.7148 9.60004 49.9624 10.0596C50.21 10.5173 50.3545 11.0894 50.3995 11.7741H48.5443C48.5143 11.4102 48.4205 11.1082 48.2611 10.8681C48.1017 10.628 47.8972 10.4348 47.6496 10.2903C47.402 10.1459 47.13 10.039 46.8318 9.97333C46.5335 9.90767 46.2315 9.87578 45.9258 9.87578C45.65 9.87578 45.3687 9.89829 45.0854 9.94144C44.8022 9.98458 44.5433 10.0615 44.3107 10.1703C44.0781 10.2791 43.8887 10.4254 43.7424 10.6073C43.596 10.7893 43.5248 11.0257 43.5248 11.3164C43.5248 11.6372 43.6373 11.9017 43.8624 12.1136C44.0875 12.3256 44.3745 12.5 44.7253 12.637C45.0742 12.7758 45.4681 12.8921 45.9032 12.9859C46.3403 13.0815 46.7755 13.1791 47.2125 13.2804C47.6777 13.3817 48.1335 13.5055 48.5762 13.6518C49.0208 13.7981 49.4128 13.9894 49.7542 14.2295C50.0956 14.4696 50.3732 14.7716 50.5833 15.1355C50.7934 15.4995 50.9003 15.9515 50.9003 16.488C50.9003 17.1727 50.7578 17.7392 50.4745 18.1912C50.1913 18.6433 49.8199 19.0072 49.3622 19.283C48.9045 19.5587 48.3868 19.7519 47.8128 19.8607C47.2369 19.9695 46.6667 20.0239 46.1002 20.0239C45.4737 20.0239 44.8772 19.9582 44.3107 19.8269C43.7424 19.6956 43.2415 19.4818 42.8045 19.1835C42.3674 18.8853 42.0185 18.4932 41.7559 18.0055C41.4933 17.5178 41.3489 16.9251 41.3188 16.2273H43.174C43.189 16.6343 43.2828 16.9795 43.4572 17.2646L43.4535 17.2627Z" fill="black"/>
<path id="Vector_4" d="M54.0002 8.49902V10.0278H54.0434C54.3491 9.40316 54.8293 8.94734 55.484 8.66409C56.1386 8.38084 56.8589 8.23828 57.6449 8.23828C58.5171 8.23828 59.2787 8.39772 59.9258 8.71849C60.573 9.03925 61.1113 9.47069 61.5409 10.0165C61.9704 10.5624 62.2931 11.1927 62.5125 11.9055C62.7301 12.6183 62.8408 13.3761 62.8408 14.1752C62.8408 14.9743 62.7357 15.7321 62.5238 16.4449C62.3118 17.1577 61.9929 17.7805 61.5634 18.3114C61.1338 18.8422 60.5955 19.2605 59.9483 19.5663C59.3012 19.872 58.5471 20.024 57.6899 20.024C57.4142 20.024 57.1047 19.994 56.7614 19.9358C56.42 19.8777 56.0805 19.7839 55.7466 19.6526C55.4127 19.5213 55.0957 19.3431 54.7974 19.118C54.4992 18.8929 54.2478 18.6134 54.0453 18.2776H54.0021V24.0832H52.147V8.49902H54.0021H54.0002ZM60.6668 12.5039C60.5279 12.0011 60.3179 11.5547 60.0346 11.1608C59.7514 10.7687 59.3875 10.4555 58.9429 10.2229C58.4984 9.99028 57.9788 9.87398 57.3823 9.87398C56.7558 9.87398 56.2249 9.99779 55.7897 10.2454C55.3527 10.493 54.9963 10.8175 54.7205 11.2171C54.4429 11.6166 54.2441 12.0724 54.1203 12.5808C53.9965 13.091 53.9346 13.6068 53.9346 14.1302C53.9346 14.6836 54.0002 15.2182 54.1315 15.734C54.2628 16.2499 54.4692 16.7057 54.7543 17.0977C55.0375 17.4898 55.4052 17.8068 55.8573 18.0469C56.3074 18.287 56.8533 18.407 57.4948 18.407C58.1363 18.407 58.6691 18.2832 59.0986 18.0356C59.5282 17.788 59.8733 17.4616 60.1359 17.0527C60.3985 16.6456 60.5861 16.1804 60.7043 15.6552C60.8206 15.1319 60.8787 14.5935 60.8787 14.0402C60.8787 13.5168 60.8093 13.0028 60.6705 12.502L60.6668 12.5039Z" fill="black"/>
<path id="Vector_5" d="M63.8865 11.8286C64.1191 11.1083 64.468 10.4836 64.9351 9.95089C65.4002 9.42004 65.9761 9.00173 66.6589 8.69598C67.3436 8.39022 68.1276 8.23828 69.0167 8.23828C69.9059 8.23828 70.7087 8.39022 71.3859 8.69598C72.063 9.00173 72.6332 9.42004 73.0984 9.95089C73.5636 10.4817 73.9125 11.1083 74.147 11.8286C74.3796 12.5489 74.4959 13.3236 74.4959 14.1527C74.4959 14.9818 74.3796 15.7528 74.147 16.4656C73.9144 17.1784 73.5655 17.8011 73.0984 18.332C72.6332 18.8629 72.0611 19.2774 71.3859 19.5757C70.7087 19.8739 69.919 20.024 69.0167 20.024C68.1145 20.024 67.3436 19.8739 66.6589 19.5757C65.9742 19.2774 65.4002 18.8629 64.9351 18.332C64.4699 17.8011 64.1191 17.1784 63.8865 16.4656C63.6539 15.7528 63.5376 14.9818 63.5376 14.1527C63.5376 13.3236 63.6539 12.5489 63.8865 11.8286ZM65.7735 15.976C65.9555 16.5068 66.2068 16.9514 66.5257 17.3078C66.8465 17.6642 67.2197 17.9381 67.6493 18.1257C68.0789 18.3151 68.5328 18.4089 69.013 18.4089C69.4932 18.4089 69.9471 18.3151 70.3767 18.1257C70.8062 17.9362 71.1795 17.6642 71.5003 17.3078C71.821 16.9514 72.0705 16.5068 72.2525 15.976C72.4344 15.4451 72.5244 14.8374 72.5244 14.1527C72.5244 13.468 72.4325 12.8621 72.2525 12.3294C72.0705 11.7986 71.8192 11.3502 71.5003 10.9863C71.1795 10.6224 70.8044 10.3467 70.3767 10.1572C69.9471 9.96778 69.4932 9.87398 69.013 9.87398C68.5328 9.87398 68.077 9.96965 67.6493 10.1572C67.2197 10.3467 66.8446 10.6224 66.5257 10.9863C66.205 11.3502 65.9536 11.7967 65.7735 12.3294C65.5916 12.8603 65.5015 13.468 65.5015 14.1527C65.5015 14.8374 65.5916 15.4451 65.7735 15.976Z" fill="black"/>
</g>
<g id="mail">
<path id="Vector_6" d="M78.9206 4.2002L83.8314 17.2971L88.7647 4.2002H91.6028V19.7844H89.6388V6.81882H89.5957L84.7281 19.7844H82.9592L78.0916 6.81882H78.0484V19.7844H76.0845V4.2002H78.9225H78.9206Z" fill="black"/>
<path id="Vector_7" d="M103.872 19.7416C103.551 19.931 103.108 20.0248 102.54 20.0248C102.06 20.0248 101.677 19.8897 101.394 19.6215C101.111 19.3533 100.968 18.9124 100.968 18.3009C100.458 18.9124 99.865 19.3533 99.1897 19.6215C98.5126 19.8897 97.781 20.0248 96.997 20.0248C96.4867 20.0248 96.0047 19.9666 95.5451 19.8503C95.0874 19.734 94.6898 19.5521 94.3559 19.3045C94.0201 19.0569 93.7556 18.7342 93.5587 18.3328C93.3617 17.9333 93.2642 17.4493 93.2642 16.8809C93.2642 16.2413 93.373 15.7179 93.5924 15.309C93.81 14.902 94.097 14.57 94.4553 14.3167C94.8117 14.0616 95.2187 13.8684 95.6783 13.739C96.136 13.6077 96.6068 13.4989 97.087 13.4107C97.5953 13.3094 98.0793 13.2325 98.5388 13.1819C98.9965 13.1312 99.4017 13.0581 99.7506 12.9643C100.099 12.8705 100.375 12.7317 100.58 12.5497C100.784 12.3678 100.885 12.1014 100.885 11.7525C100.885 11.3454 100.809 11.0172 100.657 10.7696C100.505 10.522 100.308 10.3325 100.068 10.2012C99.8275 10.0699 99.5574 9.9836 99.261 9.93858C98.9628 9.89544 98.6683 9.87293 98.3775 9.87293C97.5916 9.87293 96.9369 10.023 96.4136 10.3212C95.8902 10.6195 95.607 11.1841 95.562 12.0132H93.7068C93.735 11.3154 93.8813 10.7245 94.1439 10.2443C94.4065 9.76413 94.7554 9.37584 95.1925 9.07571C95.6295 8.77746 96.1266 8.56362 96.6875 8.43231C97.2483 8.30101 97.8486 8.23535 98.4882 8.23535C98.9965 8.23535 99.503 8.27099 100.006 8.34415C100.508 8.4173 100.962 8.56549 101.369 8.79059C101.776 9.01569 102.105 9.33082 102.352 9.73787C102.6 10.1449 102.724 10.6739 102.724 11.3267V17.121C102.724 17.5562 102.75 17.877 102.801 18.0796C102.851 18.2822 103.022 18.3835 103.313 18.3835C103.472 18.3835 103.662 18.3553 103.881 18.2972V19.7378L103.872 19.7416ZM100.859 13.9566C100.627 14.131 100.321 14.2567 99.9419 14.3374C99.563 14.418 99.1672 14.4818 98.7527 14.5324C98.3381 14.5831 97.9198 14.6412 97.4978 14.7069C97.0757 14.7725 96.6968 14.8776 96.3629 15.022C96.0272 15.1665 95.7552 15.3728 95.5451 15.641C95.3331 15.9093 95.2281 16.2751 95.2281 16.7384C95.2281 17.0423 95.29 17.2993 95.4138 17.5093C95.5376 17.7194 95.697 17.8901 95.894 18.0196C96.091 18.1509 96.3198 18.2447 96.5824 18.3028C96.845 18.361 97.1208 18.3891 97.4115 18.3891C98.023 18.3891 98.5463 18.3066 98.9834 18.1396C99.4205 17.9727 99.7769 17.7626 100.053 17.5093C100.328 17.2561 100.533 16.9804 100.664 16.684C100.795 16.3876 100.861 16.1081 100.861 15.8474V13.9584L100.859 13.9566Z" fill="black"/>
<path id="Vector_8" d="M104.827 6.46992V4.2002H106.682V6.46992H104.827ZM106.682 8.49954V19.7844H104.827V8.49954H106.682Z" fill="black"/>
<path id="Vector_9" d="M110.658 4.2002V19.7844H108.803V4.2002H110.658Z" fill="black"/>
</g>
<g id="club">
<path id="Vector_10" d="M122.432 6.77193C121.639 6.21856 120.697 5.94282 119.605 5.94282C118.673 5.94282 117.878 6.11727 117.216 6.46617C116.553 6.81507 116.008 7.28402 115.578 7.8749C115.148 8.4639 114.831 9.13732 114.629 9.89327C114.424 10.6492 114.323 11.4352 114.323 12.2512C114.323 13.1384 114.424 13.9788 114.629 14.7722C114.833 15.5657 115.148 16.256 115.578 16.845C116.008 17.434 116.557 17.903 117.227 18.2537C117.897 18.6026 118.696 18.7771 119.628 18.7771C120.313 18.7771 120.918 18.6645 121.451 18.4394C121.982 18.2143 122.44 17.9011 122.826 17.5015C123.211 17.102 123.514 16.6255 123.732 16.0722C123.95 15.5188 124.081 14.9223 124.124 14.2827H126.197C125.992 16.2466 125.317 17.7754 124.167 18.8671C123.017 19.9588 121.445 20.5047 119.453 20.5047C118.245 20.5047 117.191 20.2965 116.289 19.8819C115.387 19.4674 114.636 18.8971 114.04 18.1693C113.443 17.4415 112.995 16.5843 112.697 15.5938C112.399 14.6034 112.249 13.5417 112.249 12.4068C112.249 11.272 112.408 10.2065 112.729 9.2086C113.049 8.21255 113.518 7.34217 114.137 6.60123C114.756 5.85841 115.527 5.27316 116.45 4.8436C117.375 4.41404 118.433 4.2002 119.626 4.2002C120.44 4.2002 121.211 4.30899 121.939 4.52846C122.667 4.74606 123.314 5.06682 123.882 5.48887C124.45 5.91093 124.923 6.43803 125.3 7.07206C125.679 7.7042 125.925 8.43577 126.043 9.26487H123.97C123.738 8.16002 123.224 7.32904 122.432 6.77568V6.77193Z" fill="black"/>
<path id="Vector_11" d="M129.557 4.56738V20.1516H127.702V4.56738H129.557Z" fill="black"/>
<path id="Vector_12" d="M139.164 20.152V18.3625H139.121C138.729 19.0603 138.226 19.5743 137.614 19.9007C137.003 20.229 136.283 20.3921 135.454 20.3921C134.711 20.3921 134.094 20.2946 133.598 20.0976C133.103 19.9007 132.704 19.6212 132.398 19.2573C132.092 18.8934 131.878 18.4601 131.755 17.9592C131.631 17.4565 131.569 16.9013 131.569 16.2898V8.86719H133.424V16.5073C133.424 17.2051 133.628 17.7585 134.035 18.1656C134.443 18.5726 135.003 18.7771 135.716 18.7771C136.285 18.7771 136.774 18.6889 137.189 18.5145C137.603 18.34 137.948 18.0924 138.226 17.7716C138.502 17.4509 138.71 17.0776 138.849 16.648C138.988 16.2185 139.057 15.7495 139.057 15.2393V8.86719H140.912V20.152H139.166H139.164Z" fill="black"/>
<path id="Vector_13" d="M144.75 4.56738V10.3955H144.793C145.099 9.77087 145.579 9.31505 146.234 9.0318C146.889 8.74856 147.609 8.606 148.395 8.606C149.267 8.606 150.029 8.76544 150.676 9.0862C151.323 9.40697 151.861 9.8384 152.291 10.3843C152.72 10.9301 153.043 11.5604 153.263 12.2732C153.48 12.986 153.591 13.7438 153.591 14.5429C153.591 15.342 153.486 16.0998 153.274 16.8127C153.062 17.5255 152.743 18.1482 152.313 18.6791C151.884 19.2099 151.345 19.6282 150.698 19.934C150.051 20.2397 149.297 20.3917 148.44 20.3917C148.164 20.3917 147.855 20.3617 147.511 20.3035C147.17 20.2454 146.83 20.1516 146.497 20.0203C146.163 19.889 145.846 19.7108 145.547 19.4857C145.249 19.2606 144.998 18.9811 144.795 18.6453H144.752V20.1516H142.897V4.56738H144.752H144.75ZM151.419 12.8716C151.28 12.3689 151.07 11.9224 150.786 11.5285C150.503 11.1365 150.139 10.8232 149.695 10.5906C149.25 10.358 148.731 10.2417 148.134 10.2417C147.508 10.2417 146.977 10.3655 146.542 10.6131C146.105 10.8607 145.748 11.1852 145.472 11.5848C145.195 11.9843 144.996 12.4401 144.872 12.9485C144.748 13.4587 144.686 13.9746 144.686 14.4979C144.686 15.0513 144.752 15.5859 144.883 16.1017C145.015 16.6176 145.221 17.0734 145.506 17.4654C145.789 17.8575 146.157 18.1745 146.609 18.4146C147.059 18.6547 147.605 18.7747 148.247 18.7747C148.888 18.7747 149.421 18.6509 149.85 18.4033C150.28 18.1557 150.625 17.8293 150.888 17.4204C151.15 17.0134 151.338 16.5482 151.456 16.0229C151.572 15.4996 151.631 14.9612 151.631 14.4079C151.631 13.8845 151.561 13.3705 151.422 12.8697L151.419 12.8716Z" fill="black"/>
</g>
</g>
<g id="symbol">
<path id="Vector_14" d="M6.45278 0V1.87019L7.25211 12.3378L-0.00634766 17.2095V18.8798H1.76969L9.22322 13.8702V12.1379L8.28184 0H6.45278Z" fill="url(#paint0_linear_3332_22547)"/>
<path id="Vector_15" d="M12.4243 10.1944L6.45459 1.87019V0H8.28297L13.9829 8.20698L19.8283 6.80784H21.5955V8.48947L14.2527 10.1944H12.4243Z" fill="url(#paint1_linear_3332_22547)"/>
<path id="Vector_16" d="M-0.00634766 17.2091L9.90291 16.335H11.7048L20.7101 22.3633V23.9996H18.8817L10.1252 18.0612L3.4866 18.8794H-0.00634766V17.2091Z" fill="url(#paint2_linear_3332_22547)"/>
<path id="Vector_17" d="M14.9468 13.325L19.829 6.80762H21.5962V8.48926L17.2462 14.3363L20.7126 22.3634V23.9998H18.8842L14.9468 14.9613V13.325Z" fill="url(#paint3_linear_3332_22547)"/>
</g>
</g>
<defs>
<linearGradient id="paint0_linear_3332_22547" x1="1.01659" y1="18.516" x2="9.67839" y2="3.21151" gradientUnits="userSpaceOnUse">
<stop stop-color="#168FD0"/>
<stop offset="1" stop-color="#862872"/>
</linearGradient>
<linearGradient id="paint1_linear_3332_22547" x1="5.4031" y1="1.93215" x2="21.404" y2="11.3566" gradientUnits="userSpaceOnUse">
<stop stop-color="#862872"/>
<stop offset="1" stop-color="#C62D32"/>
</linearGradient>
<linearGradient id="paint2_linear_3332_22547" x1="1.17904" y1="14.9638" x2="19.5295" y2="25.772" gradientUnits="userSpaceOnUse">
<stop stop-color="#69B012"/>
<stop offset="1" stop-color="#F7BB13"/>
</linearGradient>
<linearGradient id="paint3_linear_3332_22547" x1="18.2712" y1="23.1057" x2="18.2712" y2="6.51779" gradientUnits="userSpaceOnUse">
<stop stop-color="#F7BB13"/>
<stop offset="0.2" stop-color="#E68302"/>
<stop offset="1" stop-color="#C62D32"/>
</linearGradient>
</defs>
</svg>
