<svg width="156" height="24" viewBox="0 0 156 24" fill="none" xmlns="http://www.w3.org/2000/svg">
<path d="M25.95 21.5977H0V23.9977H25.95V21.5977Z" fill="#69B012"/>
<path d="M52.0492 21.5977H25.9492V23.9977H52.0492V21.5977Z" fill="#F7BB13"/>
<path d="M78.0008 21.5977H52.0508V23.9977H78.0008V21.5977Z" fill="#E68302"/>
<path d="M103.95 21.5977H78V23.9977H103.95V21.5977Z" fill="#C62D32"/>
<path d="M130.049 21.5977H103.949V23.9977H130.049V21.5977Z" fill="#862872"/>
<path d="M156.001 21.5977H130.051V23.9977H156.001V21.5977Z" fill="#168FD0"/>
<path d="M5.56488 0.44043V18.9052H3.10742V0.44043H5.56488Z" fill="black"/>
<path d="M10.3724 5.53661V7.65762H10.4239C11.3358 6.03704 12.7855 5.22559 14.7683 5.22559C15.6474 5.22559 16.3816 5.34719 16.9662 5.58805C17.5507 5.83126 18.0254 6.16566 18.3878 6.59828C18.7502 7.02857 19.0051 7.54304 19.1501 8.13702C19.295 8.73099 19.3698 9.39045 19.3698 10.1154V18.9081H17.1719V9.85581C17.1719 9.02798 16.9288 8.3732 16.4471 7.89147C15.9631 7.40974 15.3014 7.16654 14.4549 7.16654C13.7815 7.16654 13.2017 7.26943 12.7083 7.47756C12.2173 7.68335 11.8081 7.978 11.4807 8.35683C11.1534 8.73567 10.9079 9.17998 10.7442 9.68744C10.5805 10.1972 10.4987 10.7538 10.4987 11.3571V18.9081H8.30078V5.53661H10.3701H10.3724Z" fill="black"/>
<path d="M23.328 15.9189C23.5337 16.2557 23.805 16.5223 24.1417 16.721C24.4784 16.9198 24.8572 17.0625 25.278 17.1467C25.6989 17.2332 26.1362 17.2753 26.5828 17.2753C26.9288 17.2753 27.2889 17.2495 27.6677 17.1981C28.0465 17.1467 28.3972 17.0531 28.7152 16.9128C29.0332 16.7748 29.2974 16.5714 29.5032 16.3048C29.7113 16.0382 29.8142 15.6968 29.8142 15.2829C29.8142 14.7146 29.599 14.2843 29.1688 13.9897C28.7386 13.6974 28.1985 13.4588 27.5531 13.2788C26.9078 13.0964 26.204 12.9327 25.4464 12.7877C24.6865 12.6427 23.985 12.4346 23.3373 12.168C22.692 11.9014 22.1519 11.5249 21.7216 11.0432C21.2914 10.5614 21.0763 9.88796 21.0763 9.02505C21.0763 8.3539 21.2259 7.7763 21.5299 7.29223C21.8315 6.8105 22.2197 6.41763 22.6943 6.11596C23.169 5.8143 23.7021 5.5898 24.2983 5.44248C24.8922 5.29749 25.4838 5.22266 26.0707 5.22266C26.8283 5.22266 27.5274 5.28813 28.1657 5.41675C28.8017 5.54537 29.3676 5.76986 29.8586 6.0879C30.3496 6.40827 30.7424 6.83856 31.0347 7.38109C31.327 7.92362 31.5 8.60179 31.5514 9.41091H29.3535C29.3185 8.98062 29.2062 8.62283 29.0168 8.33754C28.8274 8.05224 28.5866 7.8254 28.292 7.65236C27.9974 7.47931 27.6747 7.35537 27.3216 7.2782C26.9686 7.20103 26.6108 7.16127 26.2484 7.16127C25.921 7.16127 25.589 7.18699 25.2523 7.23844C24.9156 7.28989 24.6093 7.38109 24.3357 7.50971C24.0598 7.63832 23.8354 7.81137 23.6623 8.02651C23.4893 8.24166 23.4051 8.52228 23.4051 8.86837C23.4051 9.24721 23.5384 9.56291 23.805 9.81313C24.0715 10.0633 24.4129 10.2691 24.8268 10.4328C25.2406 10.5965 25.7059 10.7345 26.2227 10.8467C26.7394 10.959 27.2562 11.0759 27.7752 11.1952C28.3271 11.3168 28.8648 11.4618 29.3909 11.6348C29.917 11.8079 30.3823 12.0347 30.7868 12.32C31.1914 12.6053 31.5187 12.9607 31.7689 13.3934C32.0191 13.8237 32.143 14.3592 32.143 14.9976C32.143 15.809 31.9747 16.4802 31.638 17.0157C31.3013 17.5489 30.8617 17.9815 30.3192 18.3089C29.7767 18.6363 29.1641 18.8655 28.4837 18.9941C27.8033 19.1227 27.1276 19.1882 26.4542 19.1882C25.7129 19.1882 25.0068 19.111 24.3334 18.9543C23.66 18.7976 23.0661 18.5451 22.5493 18.192C22.0326 17.8389 21.6187 17.3735 21.3078 16.7959C20.9968 16.2183 20.8261 15.5144 20.791 14.6866H22.9889C23.0053 15.1706 23.1175 15.5799 23.3256 15.9166L23.328 15.9189Z" fill="black"/>
<path d="M35.8147 5.53661V7.3466H35.8662C36.2286 6.6053 36.7968 6.06744 37.573 5.7307C38.3493 5.39396 39.2004 5.22559 40.1334 5.22559C41.1669 5.22559 42.0694 5.415 42.8363 5.79384C43.6033 6.17268 44.2416 6.68715 44.749 7.33257C45.2564 7.978 45.6422 8.72398 45.8994 9.56818C46.1589 10.4124 46.2875 11.3104 46.2875 12.2574C46.2875 13.2045 46.1613 14.1025 45.9134 14.9467C45.6656 15.7909 45.2844 16.5275 44.7771 17.1589C44.2673 17.788 43.6313 18.2838 42.8644 18.6462C42.0975 19.0087 41.2043 19.1888 40.1872 19.1888C39.8598 19.1888 39.4927 19.1537 39.0882 19.0859C38.6837 19.0157 38.2815 18.9035 37.8864 18.7491C37.4912 18.5948 37.1148 18.3843 36.7617 18.1154C36.4086 17.8488 36.1117 17.5167 35.8685 17.1192H35.8171V23.999H33.6191V5.53661H35.8171H35.8147ZM43.7155 10.2814C43.5518 9.68744 43.3017 9.1566 42.9649 8.69124C42.6282 8.22588 42.198 7.85406 41.6719 7.57811C41.1458 7.30217 40.5309 7.1642 39.8224 7.1642C39.0812 7.1642 38.4522 7.31153 37.9355 7.60384C37.4187 7.89615 36.9955 8.27966 36.6682 8.75438C36.3408 9.22909 36.1023 9.76695 35.9573 10.3703C35.81 10.9736 35.7376 11.5863 35.7376 12.206C35.7376 12.8608 35.8147 13.4945 35.969 14.1072C36.1234 14.7199 36.3712 15.2577 36.7056 15.7231C37.0423 16.1885 37.4772 16.565 38.0126 16.8479C38.5457 17.1332 39.1934 17.2735 39.951 17.2735C40.7086 17.2735 41.3422 17.1285 41.852 16.8339C42.3617 16.5416 42.7709 16.1534 43.0819 15.6693C43.3905 15.1876 43.615 14.6357 43.7529 14.0137C43.8909 13.3916 43.961 12.7555 43.961 12.1008C43.961 11.4787 43.8792 10.8707 43.7155 10.2767V10.2814Z" fill="black"/>
<path d="M63.8877 0.44043L69.7052 15.9564L75.5484 0.44043H78.9107V18.9052H76.5818V3.54362H76.5304L70.7644 18.9052H68.6694L62.9033 3.54362H62.8519V18.9052H60.5254V0.44043H63.8877Z" fill="black"/>
<path d="M93.7401 18.8536C93.3613 19.0781 92.8352 19.1903 92.1642 19.1903C91.5936 19.1903 91.1424 19.0313 90.8057 18.7133C90.469 18.3952 90.3006 17.8714 90.3006 17.1488C89.6974 17.8737 88.9959 18.3952 88.1939 18.7133C87.3919 19.0313 86.5244 19.1903 85.5938 19.1903C84.9905 19.1903 84.4177 19.1202 83.8752 18.9845C83.3328 18.8466 82.8628 18.6314 82.4653 18.3391C82.0678 18.0468 81.7545 17.6633 81.5207 17.1886C81.2868 16.7162 81.1699 16.1409 81.1699 15.4698C81.1699 14.7121 81.3009 14.0901 81.5581 13.6083C81.8176 13.1266 82.1566 12.7337 82.5799 12.4321C83.0031 12.1304 83.4847 11.9012 84.0272 11.7469C84.5697 11.5925 85.1262 11.4616 85.6967 11.3587C86.2999 11.2371 86.8728 11.1482 87.4153 11.0874C87.9577 11.0266 88.4371 10.9424 88.8509 10.8302C89.2648 10.7179 89.5921 10.5543 89.833 10.3391C90.0738 10.124 90.1954 9.80827 90.1954 9.39436C90.1954 8.91263 90.1065 8.52444 89.9242 8.22978C89.7441 7.93747 89.5103 7.71298 89.2274 7.55864C88.9421 7.40429 88.6241 7.29906 88.2711 7.24762C87.918 7.19617 87.5672 7.17045 87.2235 7.17045C86.2929 7.17045 85.5166 7.34817 84.897 7.70128C84.2751 8.0544 83.9407 8.72321 83.8869 9.70538H81.689C81.7241 8.87755 81.8948 8.18068 82.2057 7.61008C82.5167 7.03949 82.9306 6.58114 83.4473 6.22569C83.9641 5.87024 84.5556 5.61768 85.2197 5.46334C85.8837 5.309 86.5946 5.22949 87.3521 5.22949C87.9554 5.22949 88.554 5.27158 89.1502 5.35811C89.7465 5.44463 90.2819 5.62002 90.7659 5.88661C91.2476 6.1532 91.6357 6.52736 91.9303 7.00909C92.2226 7.49082 92.3699 8.11754 92.3699 8.89392V15.7574C92.3699 16.2742 92.4003 16.6531 92.4611 16.8939C92.5219 17.1348 92.723 17.2564 93.069 17.2564C93.2584 17.2564 93.4829 17.2213 93.7425 17.1535V18.8606L93.7401 18.8536ZM90.172 11.9994C89.8961 12.2052 89.5337 12.3549 89.0871 12.4508C88.6381 12.5443 88.1682 12.6215 87.6771 12.6823C87.1861 12.7431 86.6904 12.8109 86.19 12.8881C85.6897 12.9652 85.2407 13.0892 84.8456 13.2599C84.4504 13.4306 84.1254 13.6761 83.8776 13.9942C83.6274 14.3122 83.5034 14.7448 83.5034 15.2944C83.5034 15.6545 83.5759 15.9585 83.7232 16.2064C83.8682 16.4566 84.0599 16.6577 84.2914 16.8121C84.5229 16.9664 84.7965 17.0787 85.1051 17.1465C85.4161 17.2143 85.7435 17.2494 86.0872 17.2494C86.812 17.2494 87.4316 17.1512 87.9484 16.9524C88.4651 16.7536 88.8883 16.5057 89.2157 16.2064C89.543 15.9071 89.7839 15.5797 89.9405 15.2289C90.0972 14.8781 90.1743 14.5461 90.1743 14.2374V11.9971L90.172 11.9994Z" fill="black"/>
<path d="M95.1797 3.1297V0.44043H97.3776V3.1297H95.1797ZM97.3776 5.53602V18.9052H95.1797V5.53602H97.3776Z" fill="black"/>
<path d="M102.085 0.44043V18.9052H99.8867V0.44043H102.085Z" fill="black"/>
<path d="M115.979 3.05272C115.039 2.39794 113.924 2.07055 112.631 2.07055C111.527 2.07055 110.583 2.27633 109.799 2.69259C109.014 3.1065 108.368 3.66306 107.859 4.35994C107.349 5.05681 106.975 5.85658 106.734 6.75222C106.493 7.6502 106.372 8.58092 106.372 9.54439C106.372 10.5967 106.493 11.5929 106.734 12.533C106.975 13.4731 107.351 14.2915 107.859 14.9884C108.368 15.6876 109.018 16.2418 109.811 16.6581C110.604 17.072 111.551 17.2778 112.654 17.2778C113.463 17.2778 114.183 17.1445 114.812 16.8779C115.441 16.6113 115.986 16.2395 116.442 15.7648C116.898 15.2901 117.256 14.7265 117.515 14.0717C117.773 13.4169 117.929 12.7107 117.981 11.9507H120.438C120.197 14.2775 119.395 16.0875 118.034 17.3807C116.671 18.6739 114.81 19.3193 112.449 19.3193C111.018 19.3193 109.767 19.0738 108.698 18.5827C107.629 18.0916 106.741 17.4158 106.035 16.5529C105.329 15.6923 104.798 14.6727 104.445 13.5011C104.092 12.3272 103.914 11.0691 103.914 9.72445C103.914 8.37981 104.103 7.11702 104.482 5.93608C104.861 4.75514 105.418 3.72386 106.149 2.84459C106.884 1.96531 107.795 1.27078 108.89 0.763327C109.984 0.253534 111.237 0.000976562 112.652 0.000976562C113.618 0.000976562 114.532 0.131932 115.392 0.389167C116.253 0.64874 117.02 1.02758 117.693 1.52802C118.367 2.02845 118.925 2.65283 119.374 3.40349C119.823 4.15415 120.115 5.01939 120.253 6.0039H117.798C117.522 4.69434 116.914 3.70983 115.975 3.05505L115.979 3.05272Z" fill="black"/>
<path d="M124.423 0.44043V18.9052H122.225V0.44043H124.423Z" fill="black"/>
<path d="M135.798 18.9053V16.7843H135.747C135.281 17.6121 134.685 18.2201 133.963 18.6083C133.24 18.9965 132.384 19.1906 131.402 19.1906C130.523 19.1906 129.789 19.0737 129.204 18.8422C128.618 18.6083 128.143 18.2763 127.783 17.846C127.42 17.4157 127.166 16.9012 127.021 16.3073C126.876 15.7133 126.801 15.0538 126.801 14.3289V5.53613H128.999V14.5885C128.999 15.4163 129.24 16.0711 129.724 16.5528C130.205 17.0345 130.869 17.2777 131.716 17.2777C132.387 17.2777 132.969 17.1748 133.46 16.9667C133.951 16.7609 134.36 16.4663 134.688 16.0874C135.015 15.7086 135.26 15.2643 135.424 14.7545C135.588 14.247 135.67 13.6905 135.67 13.0871V5.53613H137.868V18.9053H135.798Z" fill="black"/>
<path d="M142.418 0.44043V7.34601H142.47C142.832 6.60471 143.4 6.06685 144.177 5.73011C144.953 5.39337 145.804 5.225 146.737 5.225C147.77 5.225 148.673 5.41441 149.44 5.79325C150.207 6.17209 150.845 6.68656 151.353 7.33198C151.86 7.97741 152.246 8.72339 152.503 9.56758C152.762 10.4118 152.891 11.3098 152.891 12.2569C152.891 13.2039 152.765 14.1019 152.517 14.9461C152.269 15.7903 151.888 16.527 151.381 17.1583C150.871 17.7874 150.235 18.2832 149.468 18.6456C148.701 19.0081 147.808 19.1882 146.791 19.1882C146.463 19.1882 146.096 19.1531 145.692 19.0853C145.287 19.0151 144.885 18.9029 144.49 18.7485C144.095 18.5942 143.718 18.3837 143.365 18.1148C143.012 17.8482 142.715 17.5161 142.472 17.1186H142.421V18.9029H140.223V0.44043H142.421H142.418ZM150.317 10.2808C150.153 9.68685 149.903 9.15601 149.566 8.69065C149.229 8.22529 148.799 7.85347 148.273 7.57752C147.747 7.30158 147.132 7.16361 146.424 7.16361C145.682 7.16361 145.053 7.31094 144.537 7.60325C144.02 7.89556 143.597 8.27907 143.269 8.75379C142.942 9.2285 142.704 9.76636 142.559 10.3697C142.411 10.973 142.339 11.5857 142.339 12.2054C142.339 12.8602 142.416 13.4939 142.57 14.1066C142.725 14.7193 142.972 15.2572 143.307 15.7225C143.643 16.1879 144.078 16.5644 144.614 16.8473C145.147 17.1326 145.795 17.2729 146.552 17.2729C147.31 17.2729 147.943 17.1279 148.453 16.8333C148.963 16.541 149.372 16.1528 149.683 15.6687C149.992 15.187 150.216 14.6351 150.354 14.0131C150.492 13.391 150.562 12.755 150.562 12.1002C150.562 11.4781 150.48 10.8701 150.317 10.2761V10.2808Z" fill="black"/>
<path d="M46.3492 12.8559C46.7575 12.8581 48.8776 12.917 50.5706 14.6366C52.3889 16.4863 52.2985 18.8235 52.2769 19.1962L52.2723 19.2756H52.3518H54.0336H54.1086V19.2006C54.1086 18.8325 54.1566 16.5194 56.0635 14.7912C57.8881 13.1389 60.0621 13.247 60.4445 13.273L60.5246 13.2785V13.1982V11.5247V11.4497H60.4496C60.0759 11.4497 57.8543 11.4146 56.1334 9.58882C54.3908 7.73911 54.5007 5.47595 54.5266 5.10582L54.5322 5.02559H54.4518H52.746H52.6718L52.671 5.09973C52.6666 5.47903 52.6035 7.72715 50.7504 9.44912C48.9276 11.1407 46.7382 11.0585 46.3538 11.0369L46.2746 11.0324V11.1118V12.7809V12.8555L46.3492 12.8559ZM54.8607 13.4196C54.0927 14.1137 53.6048 14.8387 53.3067 15.3762C53.0726 14.8637 52.6761 14.1603 52.0212 13.4589L52.0211 13.4588C51.3624 12.7555 50.6815 12.3128 50.1857 12.0455C50.676 11.8007 51.2954 11.426 51.9203 10.8622L51.9203 10.8621C52.6841 10.1719 53.1762 9.45329 53.4804 8.91592C53.7304 9.43795 54.1456 10.1486 54.8203 10.8518C55.4632 11.523 56.1191 11.9574 56.6123 12.2301C56.1243 12.4702 55.5087 12.837 54.8857 13.3949L54.8607 13.4173V13.4196Z" fill="black" stroke="black" stroke-width="0.15"/>
</svg>
