<svg width="350" height="64" viewBox="0 0 350 64" fill="none" xmlns="http://www.w3.org/2000/svg">
<rect x="0.5" y="0.5" width="349" height="63" fill="white"/>
<rect x="0.5" y="0.5" width="349" height="63" stroke="#DBDBDB"/>
<g clip-path="url(#clip0_1605_6916)">
<path d="M84.361 20.7889C81.9631 21.6208 79.8951 23.1998 78.4608 25.2938C77.0265 27.3879 76.3015 29.8867 76.3924 32.4233C76.4832 34.9598 77.3851 37.4004 78.9655 39.3864C80.5459 41.3725 82.7216 42.7995 85.1729 43.4577C87.1603 43.9705 89.2424 43.993 91.2404 43.5233C93.0504 43.1168 94.7238 42.2471 96.0967 40.9996C97.5256 39.6615 98.5627 37.9592 99.0967 36.0758C99.677 34.0277 99.7803 31.8738 99.3985 29.7796H88.2385V34.4089H94.7017C94.5725 35.1473 94.2957 35.852 93.8878 36.4809C93.48 37.1098 92.9494 37.6499 92.3279 38.0689C91.5387 38.591 90.649 38.9423 89.716 39.1002C88.7803 39.2742 87.8205 39.2742 86.8848 39.1002C85.9364 38.9041 85.0392 38.5127 84.2504 37.9508C82.9832 37.0538 82.0317 35.7794 81.5317 34.3096C81.0232 32.8122 81.0232 31.1888 81.5317 29.6914C81.8876 28.6418 82.476 27.6862 83.2529 26.8958C84.142 25.9747 85.2677 25.3163 86.5063 24.9928C87.745 24.6694 89.0488 24.6933 90.2748 25.0621C91.2325 25.3561 92.1083 25.8697 92.8323 26.5621C93.561 25.8371 94.2885 25.1102 95.0148 24.3814C95.3898 23.9896 95.7985 23.6164 96.1679 23.2152C95.0627 22.1867 93.7654 21.3864 92.3504 20.8602C89.7736 19.9246 86.9541 19.8994 84.361 20.7889Z" fill="white"/>
<path d="M84.3607 20.7899C86.9536 19.8997 89.7731 19.9242 92.3501 20.8592C93.7654 21.389 95.062 22.1932 96.1657 23.2255C95.7907 23.6267 95.3951 24.0017 95.0126 24.3917C94.2851 25.118 93.5582 25.8417 92.832 26.563C92.1079 25.8706 91.2321 25.357 90.2745 25.063C89.0489 24.6929 87.7451 24.6676 86.5061 24.9897C85.2671 25.3119 84.1408 25.9691 83.2507 26.8892C82.4738 27.6796 81.8854 28.6353 81.5295 29.6849L77.6426 26.6755C79.0338 23.9165 81.4427 21.8062 84.3607 20.7899Z" fill="#C62D32"/>
<path d="M76.6114 29.6561C76.8203 28.6207 77.1672 27.618 77.6427 26.6748L81.5295 29.6917C81.0211 31.1891 81.0211 32.8124 81.5295 34.3098C80.2345 35.3098 78.9389 36.3148 77.6427 37.3248C76.4523 34.9554 76.0893 32.2557 76.6114 29.6561Z" fill="#F7BB13"/>
<path d="M88.2372 29.7783H99.3972C99.7789 31.8726 99.6756 34.0264 99.0953 36.0746C98.5614 37.958 97.5242 39.6602 96.0953 40.9983C94.8409 40.0196 93.5809 39.0483 92.3265 38.0696C92.9484 37.6501 93.4792 37.1094 93.8871 36.4798C94.295 35.8503 94.5716 35.1448 94.7003 34.4058H88.2372C88.2353 32.8646 88.2372 31.3214 88.2372 29.7783Z" fill="#168FD0"/>
<path d="M77.6406 37.3246C78.9369 36.3246 80.2325 35.3196 81.5275 34.3096C82.0285 35.7799 82.9814 37.0544 84.25 37.9508C85.0413 38.5101 85.9404 38.8983 86.89 39.0908C87.8257 39.2648 88.7855 39.2648 89.7213 39.0908C90.6542 38.9329 91.5439 38.5816 92.3331 38.0596C93.5875 39.0383 94.8475 40.0096 96.1019 40.9883C94.7292 42.2366 93.0558 43.1068 91.2456 43.5139C89.2476 43.9836 87.1655 43.9611 85.1781 43.4483C83.6063 43.0286 82.1381 42.2888 80.8656 41.2752C79.5187 40.2059 78.4187 38.8583 77.6406 37.3246Z" fill="#69B012"/>
</g>
<path d="M125.094 30.2188C124.609 28.7656 123.5 27.8438 121.891 27.8438C119.891 27.8438 118.297 29.4219 118.297 32.3438C118.297 35.2656 119.891 36.8438 121.984 36.8438C123.898 36.8438 125.203 35.5625 125.234 33.5625H122.281V32.3281H126.609V33.5469C126.609 36.3594 124.672 38.1562 121.984 38.1562C118.969 38.1562 116.938 35.9219 116.938 32.3438C116.938 28.7656 118.984 26.5312 121.891 26.5312C124.281 26.5312 126.125 28.0312 126.547 30.2188H125.094ZM131.216 38.1719C128.903 38.1719 127.341 36.4375 127.341 33.7969C127.341 31.1562 128.903 29.4062 131.216 29.4062C133.512 29.4062 135.059 31.1562 135.059 33.7969C135.059 36.4375 133.512 38.1719 131.216 38.1719ZM131.216 36.9844C132.919 36.9844 133.716 35.4844 133.716 33.7969C133.716 32.1094 132.919 30.5938 131.216 30.5938C129.481 30.5938 128.684 32.1094 128.684 33.7969C128.684 35.4844 129.481 36.9844 131.216 36.9844ZM139.494 38.1719C137.181 38.1719 135.619 36.4375 135.619 33.7969C135.619 31.1562 137.181 29.4062 139.494 29.4062C141.791 29.4062 143.337 31.1562 143.337 33.7969C143.337 36.4375 141.791 38.1719 139.494 38.1719ZM139.494 36.9844C141.197 36.9844 141.994 35.4844 141.994 33.7969C141.994 32.1094 141.197 30.5938 139.494 30.5938C137.759 30.5938 136.962 32.1094 136.962 33.7969C136.962 35.4844 137.759 36.9844 139.494 36.9844ZM147.741 41.3594C145.694 41.3594 144.303 40.4688 144.147 38.8906H145.553C145.741 39.75 146.538 40.1875 147.741 40.1875C149.194 40.1875 150.084 39.5625 150.084 38.1562V36.4375H149.975C149.694 36.9062 149.147 37.875 147.506 37.875C145.444 37.875 143.897 36.3125 143.897 33.6406C143.897 31.0312 145.397 29.4062 147.522 29.4062C149.163 29.4062 149.694 30.4062 150.006 30.8594H150.116V29.5156H151.428V38.2344C151.428 40.4219 149.803 41.3594 147.741 41.3594ZM147.694 36.6719C149.241 36.6719 150.116 35.5625 150.116 33.6875C150.116 31.875 149.272 30.6094 147.694 30.6094C146.069 30.6094 145.256 31.9844 145.256 33.6875C145.256 35.4531 146.084 36.6719 147.694 36.6719ZM154.112 26.6875V38H152.769V26.6875H154.112ZM159.016 38.1719C156.562 38.1719 155.047 36.4375 155.047 33.8281C155.047 31.2188 156.578 29.4062 158.891 29.4062C160.672 29.4062 162.547 30.5 162.547 33.6406V34.2031H156.391C156.453 36 157.5 36.9844 159.016 36.9844C160.031 36.9844 160.672 36.5469 160.984 36.0156H162.422C162.016 37.2969 160.766 38.1719 159.016 38.1719ZM156.406 33.0625H161.188C161.188 31.6406 160.281 30.5938 158.891 30.5938C157.422 30.5938 156.484 31.75 156.406 33.0625ZM178.088 25.375V39.2656H176.916V25.375H178.088ZM175.275 25.75V38.5625H174.103V33.75H171.525V32.7344H174.103V30.2656H171.759C171.08 32.6172 169.556 34.6953 166.931 36.2656L166.181 35.375C169.205 33.5859 170.72 31.0781 170.963 28.1719H166.806V27.1562H172.181C172.181 27.8672 172.119 28.5703 171.994 29.25H174.103V25.75H175.275ZM190.741 25.375V33.6562H189.506V30.0156H186.709V29H189.506V25.375H190.741ZM186.131 34.0938C189.022 34.0938 190.787 35.0312 190.787 36.6719C190.787 38.3125 189.022 39.25 186.131 39.2656C183.241 39.25 181.475 38.3125 181.475 36.6719C181.475 35.0312 183.241 34.0938 186.131 34.0938ZM186.131 35.0469C184.006 35.0469 182.678 35.6562 182.694 36.6719C182.678 37.6719 184.006 38.2812 186.131 38.2812C188.256 38.2812 189.569 37.6719 189.569 36.6719C189.569 35.6562 188.256 35.0469 186.131 35.0469ZM184.053 27.9219C184.053 29.7344 185.444 31.4531 187.475 32.1562L186.834 33.1406C185.272 32.5781 184.061 31.4141 183.475 29.9688C182.866 31.6016 181.577 32.9062 179.928 33.5312L179.287 32.5469C181.35 31.7969 182.819 29.9219 182.819 27.9375V27.4219H179.678V26.3906H187.162V27.4219H184.053V27.9219ZM198.581 26.2812C201.488 26.2812 203.659 27.7969 203.659 30.0938C203.659 32.4062 201.488 33.9219 198.581 33.9062C195.675 33.9219 193.503 32.4062 193.503 30.0938C193.503 27.7969 195.675 26.2812 198.581 26.2812ZM198.581 27.2812C196.347 27.2656 194.659 28.4375 194.675 30.0938C194.659 31.7812 196.347 32.9062 198.581 32.9062C200.8 32.9062 202.472 31.7812 202.472 30.0938C202.472 28.4375 200.8 27.2656 198.581 27.2812ZM204.972 36.3906V37.4219H192.253V36.3906H204.972ZM218 36.5156V37.5469H205.281V36.5156H211V33.8906H206.875V29.6094H215.188V27.4219H206.844V26.4062H216.391V30.6094H208.094V32.875H216.719V33.8906H212.203V36.5156H218ZM233.416 25.375V39.2656H232.244V25.375H233.416ZM230.603 25.75V38.5625H229.431V33.75H226.853V32.7344H229.431V30.2656H227.088C226.408 32.6172 224.884 34.6953 222.259 36.2656L221.509 35.375C224.533 33.5859 226.048 31.0781 226.291 28.1719H222.134V27.1562H227.509C227.509 27.8672 227.447 28.5703 227.322 29.25H229.431V25.75H230.603ZM247.256 32.3594V33.375H234.553V32.3594H240.272V30.2188H241.475V32.3594H247.256ZM241.491 26.25C241.491 28.0938 243.991 29.6406 246.444 29.9844L245.944 30.9688C243.834 30.6016 241.748 29.4844 240.881 27.875C240.006 29.4922 237.912 30.6016 235.787 30.9688L235.319 29.9844C237.772 29.6406 240.256 28.0938 240.256 26.25V25.5938H241.491V26.25ZM245.647 34.7344V39.2656H244.412V35.7188H235.959V34.7344H245.647ZM258.331 25.375V31.1094H260.659V32.125H258.331V39.2656H257.113V25.375H258.331ZM255.769 27.6094V28.625H247.503V27.6094H251.081V25.5469H252.3V27.6094H255.769ZM251.706 29.7812C253.675 29.7812 255.097 31.0938 255.113 32.9688C255.097 34.8438 253.675 36.1562 251.706 36.1562C249.722 36.1562 248.284 34.8438 248.3 32.9688C248.284 31.0938 249.722 29.7812 251.706 29.7812ZM251.706 30.8125C250.409 30.8125 249.456 31.7188 249.472 32.9688C249.456 34.2344 250.409 35.125 251.706 35.1094C252.988 35.125 253.925 34.2344 253.941 32.9688C253.925 31.7188 252.988 30.8125 251.706 30.8125ZM272.094 25.375V39.2656H270.859V25.375H272.094ZM267.984 26.8906C267.969 30.8906 266.109 34.4219 261.453 36.6562L260.781 35.6562C264.539 33.875 266.453 31.2109 266.734 27.8906H261.422V26.8906H267.984Z" fill="black"/>
<defs>
<clipPath id="clip0_1605_6916">
<rect width="24" height="24" fill="white" transform="translate(76 20)"/>
</clipPath>
</defs>
</svg>
